<?xml version="1.0" standalone="no"?>
<!DOCTYPE svg PUBLIC "-//W3C//DTD SVG 1.1//EN" "http://www.w3.org/Graphics/SVG/1.1/DTD/svg11.dtd" >
<svg xmlns="http://www.w3.org/2000/svg">
<metadata>Generated by IcoMoon</metadata>
<defs>
<font id="icomoon" horiz-adv-x="1024">
<font-face units-per-em="1024" ascent="960" descent="-64" />
<missing-glyph horiz-adv-x="1024" />
<glyph unicode="&#x20;" d="" horiz-adv-x="512" />
<glyph unicode="&#xe014;" d="M512 896.032q95.667 0 182.5-37.167t149.667-100 100-149.667 37.167-182.5-37.167-182.5-100-149.667-149.667-100-182.5-37.167-182.5 37.167-149.667 100-100 149.667-37.167 182.5 37.167 182.5 100 149.667 149.667 100 182.5 37.167zM512 810.699q-78 0-149.167-30.5t-122.5-81.833-81.833-122.5-30.5-149.167 30.5-149.167 81.833-122.5 122.5-81.833 149.167-30.5 149.167 30.5 122.5 81.833 81.833 122.5 30.5 149.167-30.5 149.167-81.833 122.5-122.5 81.833-149.167 30.5zM512 725.366q17.667 0 30.167-12.5t12.5-30.167v-238.333l115.667-115.333q12.333-12.333 12.333-30.333t-12.333-30.333-30.333-12.333-30.333 12.333l-128 128q-12.333 12.333-12.333 30.333v256q0 17.667 12.5 30.167t30.167 12.5z" />
<glyph unicode="&#xe040;" d="M512 896.032q95.667 0 182.5-37.167t149.667-100 100-149.667 37.167-182.5-37.167-182.5-100-149.667-149.667-100-182.5-37.167-182.5 37.167-149.667 100-100 149.667-37.167 182.5 37.167 182.5 100 149.667 149.667 100 182.5 37.167zM512 810.699q-78 0-149.167-30.5t-122.5-81.833-81.833-122.5-30.5-149.167 30.5-149.167 81.833-122.5 122.5-81.833 149.167-30.5 149.167 30.5 122.5 81.833 81.833 122.5 30.5 149.167-30.5 149.167-81.833 122.5-122.5 81.833-149.167 30.5zM512 640.032q17.667 0 30.167-12.5t12.5-30.167v-128h128q17.667 0 30.167-12.5t12.5-30.167-12.5-30.167-30.167-12.5h-128v-128q0-17.667-12.5-30.167t-30.167-12.5-30.167 12.5-12.5 30.167v128h-128q-17.667 0-30.167 12.5t-12.5 30.167 12.5 30.167 30.167 12.5h128v128q0 17.667 12.5 30.167t30.167 12.5z" />
<glyph unicode="&#xe041;" d="M512 896.032q95.667 0 182.5-37.167t149.667-100 100-149.667 37.167-182.5-37.167-182.5-100-149.667-149.667-100-182.5-37.167-182.5 37.167-149.667 100-100 149.667-37.167 182.5 37.167 182.5 100 149.667 149.667 100 182.5 37.167zM512 810.699q-78 0-149.167-30.5t-122.5-81.833-81.833-122.5-30.5-149.167 30.5-149.167 81.833-122.5 122.5-81.833 149.167-30.5 149.167 30.5 122.5 81.833 81.833 122.5 30.5 149.167-30.5 149.167-81.833 122.5-122.5 81.833-149.167 30.5zM341.333 469.366h341.333q17.667 0 30.167-12.5t12.5-30.167-12.5-30.167-30.167-12.5h-341.333q-17.667 0-30.167 12.5t-12.5 30.167 12.5 30.167 30.167 12.5z" />
<glyph unicode="&#xe042;" d="M512 896.032q95.667 0 182.5-37.167t149.667-100 100-149.667 37.167-182.5-37.167-182.5-100-149.667-149.667-100-182.5-37.167-182.5 37.167-149.667 100-100 149.667-37.167 182.5 37.167 182.5 100 149.667 149.667 100 182.5 37.167zM512 810.699q-78 0-149.167-30.5t-122.5-81.833-81.833-122.5-30.5-149.167 30.5-149.167 81.833-122.5 122.5-81.833 149.167-30.5 149.167 30.5 122.5 81.833 81.833 122.5 30.5 149.167-30.5 149.167-81.833 122.5-122.5 81.833-149.167 30.5zM655.667 555.032q17.667 0 30.167-12.5t12.5-30.167-12.667-30.333l-181-181q-12.333-12.333-30-12.333-18 0-30.333 12.333l-90.667 90.333q-12.333 12.333-12.333 30.333 0 17.667 12.5 30.167t30.167 12.5 30.333-12.667l60.333-60.333 150.667 151q12.667 12.667 30.333 12.667z" />
<glyph unicode="&#xe043;" d="M512 896.032q95.667 0 182.5-37.167t149.667-100 100-149.667 37.167-182.5-37.167-182.5-100-149.667-149.667-100-182.5-37.167-182.5 37.167-149.667 100-100 149.667-37.167 182.5 37.167 182.5 100 149.667 149.667 100 182.5 37.167zM512 810.699q-78 0-149.167-30.5t-122.5-81.833-81.833-122.5-30.5-149.167 30.5-149.167 81.833-122.5 122.5-81.833 149.167-30.5 149.167 30.5 122.5 81.833 81.833 122.5 30.5 149.167-30.5 149.167-81.833 122.5-122.5 81.833-149.167 30.5zM632.667 590.366q17.667 0 30.333-12.5t12.667-30.167-12.667-30.333l-90.667-90.667 90.667-90.333q12.667-12.667 12.667-30 0-17.667-12.667-30.167t-30.333-12.5-30 12.333l-90.667 90.333-90.333-90.333q-12.333-12.333-30.333-12.333-17.667 0-30.167 12.333t-12.5 30q0 18 12.333 30.333l90.667 90.333-90.667 90.667q-12.333 12.333-12.333 30t12.5 30.333 30.167 12.667 30.333-12.667l90.333-90.667 90.667 90.667q12.667 12.667 30 12.667z" />
<glyph unicode="&#xe049;" d="M1140.864 511.296c-8.448 2.624-17.408-1.984-20.096-10.4-2.656-8.416 1.984-17.408 10.4-20.096 125.056-39.84 180.832-99.264 180.832-192.768 0-83.168-75.872-147.712-121.056-178.816-4.352-3.008-6.944-7.904-6.944-13.184v-122.336c-23.36 8.704-64.096 28.48-100.032 68.96-3.744 4.192-9.44 6.112-14.976 5.088-9.12-1.76-18.432-4.256-27.872-6.784-16.32-4.384-33.152-8.928-49.12-8.928-82.176 0-139.712 17.664-198.528 60.896-7.168 5.248-17.12 3.68-22.368-3.424-5.248-7.136-3.712-17.12 3.392-22.368 64.864-47.68 127.872-67.104 217.504-67.104 20.192 0 39.136 5.088 57.44 10.016 5.696 1.568 11.36 3.104 16.96 4.416 59.808-63.168 127.456-77.536 130.4-78.112 1.056-0.224 2.112-0.32 3.2-0.32 3.648 0 7.264 1.248 10.112 3.616 3.744 3.040 5.888 7.584 5.888 12.384v135.648c82.624 58.912 128 129.824 128 200.352 0 108.192-64.544 179.136-203.136 223.264zM1056 528.032c0 246.272-224.576 432-522.336 432-299.264 0-533.664-189.792-533.664-432.064 0-145.248 102.752-249.312 192-312.288v-212.352c0-5.44 2.752-10.464 7.296-13.44 2.656-1.696 5.664-2.56 8.704-2.56 2.208 0 4.448 0.48 6.56 1.408 4.672 2.080 113.888 51.712 207.328 153.888 40.48-7.52 86.272-14.752 127.808-14.752 302.816 0 506.304 160.832 506.304 400.16zM549.664 159.872c-41.92 0-89.568 8.032-130.656 15.872-5.536 0.992-11.232-0.896-14.976-5.088-65.6-73.984-142.688-120.992-180.032-141.248v194.624c0 5.28-2.592 10.176-6.944 13.184-84.416 58.080-185.056 155.616-185.056 290.752 0 224.352 220.352 400.064 501.664 400.064 279.552 0 490.336-171.968 490.336-400 0-220.224-190.624-368.16-474.336-368.16zM528 592.032c-35.296 0-64-28.704-64-64s28.704-64 64-64 64 28.704 64 64-28.704 64-64 64zM528 496.032c-17.632 0-32 14.336-32 32s14.368 32 32 32 32-14.336 32-32-14.368-32-32-32zM752 592.032c-35.296 0-64-28.704-64-64s28.704-64 64-64 64 28.704 64 64-28.704 64-64 64zM752 496.032c-17.632 0-32 14.336-32 32s14.368 32 32 32 32-14.336 32-32-14.368-32-32-32zM304 588.992c-35.296 0-64-28.704-64-64s28.704-64 64-64 64 28.704 64 64-28.704 64-64 64zM304 492.992c-17.632 0-32 14.336-32 32s14.368 32 32 32 32-14.336 32-32-14.368-32-32-32z" horiz-adv-x="1344" />
<glyph unicode="&#xe114;" d="M512 853.334q17.667 0 30.167-12.5t12.5-30.167v-341.333h341.333q17.667 0 30.167-12.5t12.5-30.167-12.5-30.167-30.167-12.5h-341.333v-341.333q0-17.667-12.5-30.167t-30.167-12.5-30.167 12.5-12.5 30.167v341.333h-341.333q-17.667 0-30.167 12.5t-12.5 30.167 12.5 30.167 30.167 12.5h341.333v341.333q0 17.667 12.5 30.167t30.167 12.5z" />
<glyph unicode="&#xe115;" d="M128 469.334h768q17.667 0 30.167-12.5t12.5-30.167-12.5-30.167-30.167-12.5h-768q-17.667 0-30.167 12.5t-12.5 30.167 12.5 30.167 30.167 12.5z" />
<glyph unicode="&#xe600;" d="M934.176 791.552c-116.128 115.072-301.824 117.472-422.112 9.216-120.32 108.256-305.952 105.856-422.144-9.216-119.712-118.528-119.712-310.688 0-429.28 34.208-33.888 353.696-350.112 353.696-350.112 37.856-37.504 99.072-37.504 136.896 0 0 0 349.824 346.304 353.696 350.112 119.744 118.592 119.744 310.752-0.032 429.28zM888.576 407.456l-353.696-350.112c-12.576-12.512-33.088-12.512-45.6 0l-353.696 350.112c-94.4 93.44-94.4 245.472 0 338.912 91.008 90.080 237.312 93.248 333.088 7.104l43.392-39.040 43.36 39.040c95.808 86.144 242.112 83.008 333.12-7.104 94.4-93.408 94.4-245.44 0.032-338.912zM296.096 720c8.864 0 16-7.168 16-16s-7.168-16-16-16h-0.032c-57.408 0-103.968-46.56-103.968-103.968v-0.032c0-8.832-7.168-16-16-16s-16 7.168-16 16v0c0 75.072 60.832 135.904 135.872 135.968 0.064 0 0.064 0.032 0.128 0.032z" />
<glyph unicode="&#xe601;" d="M540.864 767.904h292l-0.64-295.328-100.128 100.096-94.368-94.368c21.184-37.248 33.376-80.224 33.376-126.112 0-141.376-114.56-256-256-256-141.376 0-256 114.624-256 256s114.624 256 256 256c48.8 0 94.272-13.92 133.12-37.632l93.376 94.592-100.736 102.752zM287.136 352.16c0-70.688 57.312-128 128-128s128 57.312 128 128-57.312 128-128 128-128-57.312-128-128z" />
<glyph unicode="&#xe602;" d="M938.667 694.646l-196.053 164.48-54.827-65.28 196.053-164.48 54.827 65.28zM336.213 794.059l-54.827 65.28-196.053-164.48 54.827-65.28 196.053 164.48zM533.333 597.366h-64v-256l202.453-121.813 32.213 52.693-170.667 101.12v224zM511.787 768.032c-212.267 0-383.787-171.947-383.787-384s171.52-384 383.787-384 384.213 171.947 384.213 384-171.947 384-384.213 384zM512 85.366c-164.907 0-298.667 133.76-298.667 298.667s133.76 298.667 298.667 298.667 298.667-133.76 298.667-298.667-133.547-298.667-298.667-298.667z" />
<glyph unicode="&#xe603;" d="M577.248 360.96v-105.376h127.872v-127.872h-127.872v-127.872h-129.824v127.872h-127.84v127.872h127.84v105.76c-109.92 28.64-191.136 128.288-191.136 247.136 0 141.216 114.496 255.712 255.712 255.712 141.248 0 255.68-114.496 255.68-255.712 0-119.328-79.872-219.264-190.432-247.52zM512 736.32c-70.624 0-127.872-57.216-127.872-127.84 0-70.592 57.248-127.84 127.872-127.84s127.872 57.248 127.872 127.84c0 70.624-57.248 127.84-127.872 127.84z" />
<glyph unicode="&#xe604;" d="M794.624 593.792c-5.952 8.896-15.936 14.24-26.624 14.24h-32c-17.696 0-32-14.304-32-32v-192c0-17.696 14.304-32 32-32h128c17.696 0 32 14.304 32 32v48c0 6.304-1.888 12.512-5.376 17.76l-96 144zM864 384.032h-128v192h32l96-144v-48zM1007.872 469.28l-128 192c-17.856 26.784-47.744 42.752-79.872 42.752h-128v64c0 52.928-43.072 96-96 96h-480c-52.928 0-96-43.072-96-96v-352c0-52.928 43.072-96 96-96v0-96c0-52.928 43.072-96 96-96h36.544c14.304-55.072 64-96 123.488-96 59.424 0 109.12 40.928 123.424 96h169.024c14.304-55.072 64-96 123.488-96 59.424 0 109.12 40.928 123.424 96h36.608c52.928 0 96 43.072 96 96v192c0 19.008-5.568 37.44-16.128 53.248zM96 384.032c-17.664 0-32 14.304-32 32v352c0 17.696 14.336 32 32 32h480c17.696 0 32-14.304 32-32v-352c0-17.696-14.304-32-32-32h-480zM352.032 96.032c-35.36 0-64 28.672-64 64s28.64 64 64 64c35.328 0 64-28.672 64-64s-28.704-64-64-64zM768 96.032c-35.36 0-64 28.672-64 64s28.64 64 64 64c35.328 0 64-28.672 64-64s-28.672-64-64-64zM960 224.032c0-17.696-14.304-32-32-32h-36.576c-14.304 55.072-64 96-123.424 96-59.488 0-109.184-40.928-123.488-96h-169.024c-14.304 55.072-64 96-123.424 96-59.488 0-109.184-40.928-123.488-96h-36.576c-17.664 0-32 14.304-32 32v96h416c52.928 0 96 43.072 96 96v224h128c10.688 0 20.672-5.344 26.624-14.24l128-192c3.488-5.248 5.376-11.456 5.376-17.76v-192z" />
<glyph unicode="&#xe605;" d="M508.294 96.337c-188.904 0-342.577 153.673-342.577 342.552s153.673 342.552 342.577 342.552 342.552-153.673 342.552-342.552-153.649-342.552-342.552-342.552zM508.294 735.020c-163.304 0-296.155-132.852-296.155-296.131s132.852-296.131 296.131-296.131 296.155 132.852 296.155 296.131-132.852 296.131-296.131 296.131zM238.373 241.769c-115.712 0-201.289 22.089-212.675 74.996-10.484 48.713 41.228 99.767 153.722 151.82 11.63 5.486 25.429 0.341 30.818-11.288 5.388-11.654 0.341-25.454-11.337-30.842-99.621-46.129-130.999-85.016-127.805-99.913 7.387-34.182 172.52-65.463 462.043-3.194 289.475 62.293 427.227 158.72 419.864 192.926-3.194 14.848-47.714 37.376-157.379 38.473-12.849 0.146-23.138 10.654-22.991 23.454 0.146 12.727 10.484 22.991 23.235 22.991h0.195c123.855-1.268 191.902-26.551 202.338-75.166 20.285-94.184-213.821-196.096-455.485-248.101-105.862-22.723-214.333-36.157-304.542-36.157z" />
<glyph unicode="&#xe606;" d="M959.36 741.824c-3.072 50.24-44.384 90.112-95.36 90.112h-96v32.064c0 53.024-43.008 96-96 96h-320c-53.024 0-96-42.976-96-96v-32.032h-96c-51.040 0-92.32-39.872-95.392-90.112h-0.608v-69.856c0-35.328 28.672-64 64-64v0-544c0-70.688 57.312-128 128-128h512c70.688 0 128 57.312 128 128v544c35.328 0 64 28.672 64 64v69.824h-0.64zM320 863.968c0 17.696 14.304 32 32 32h320c17.696 0 32-14.304 32-32v-32h-384v32zM832 63.968c0-35.264-28.736-64-64-64h-512c-35.296 0-64 28.736-64 64v544h640v-544zM896 704v-32h-768v63.968c0 17.696 14.304 32 32 32h704c17.696 0 32-14.304 32-32v-31.968zM288 63.84h64c17.696 0 32 14.304 32 32v416c0 17.696-14.304 32-32 32h-64c-17.696 0-32-14.304-32-32v-416c0-17.696 14.304-32 32-32zM288 511.872h64v-416h-64v416zM480 63.84h64c17.696 0 32 14.304 32 32v416c0 17.696-14.304 32-32 32h-64c-17.696 0-32-14.304-32-32v-416c0-17.696 14.304-32 32-32zM480 511.872h64v-416h-64v416zM672 63.84h64c17.696 0 32 14.304 32 32v416c0 17.696-14.304 32-32 32h-64c-17.696 0-32-14.304-32-32v-416c0-17.696 14.304-32 32-32zM672 511.872h64v-416h-64v416z" />
<glyph unicode="&#xe607;" d="M508.27 95.971c-189.099 0-342.918 153.844-342.918 342.918s153.844 342.918 342.918 342.918 342.942-153.819 342.942-342.918-153.844-342.918-342.942-342.918zM508.27 733.045c-162.231 0-294.181-131.95-294.181-294.156s131.95-294.156 294.156-294.156 294.205 131.95 294.205 294.156-131.974 294.156-294.181 294.156zM239.592 241.135c-116.297-0.024-202.411 22.309-213.918 75.678-10.557 49.25 41.253 100.645 154.014 152.82 12.19 5.778 26.697 0.341 32.354-11.874s0.341-26.722-11.874-32.354c-98.718-45.69-129.926-83.822-126.83-98.304 7.095-32.792 175.616-63.269 459.483-2.243 121.563 26.161 232.936 62.952 313.588 103.57 81.481 41.058 106.984 74.776 104.253 87.43-2.146 10.021-34.304 36.206-155.819 37.449-13.483 0.146-24.283 11.166-24.137 24.625 0.171 13.434 11.654 23.625 24.625 24.137 124.197-1.268 192.488-26.843 202.996-75.971 9.752-45.3-33.987-92.843-129.975-141.214-84.261-42.447-199.778-80.701-325.315-107.691-105.423-22.699-213.455-36.059-303.445-36.059zM396.824 215.218c69.437 8.826 127.586 20.529 153.917 26.185 52.395 11.288 103.18 24.503 150.845 39.18v-0.073c-45.812-55.881-115.371-91.526-193.317-91.526-40.058 0-77.873 9.411-111.421 26.136zM284.672 327.395c65.122 3.145 146.018 12.898 240.445 33.207 94.525 20.334 172.349 44.715 233.058 68.632l-0.195-0.024c0.122 3.218 0.195 6.437 0.195 9.655 0 138.021-111.86 249.88-249.905 249.88-138.021 0-249.905-111.86-249.905-249.88 0-40.155 9.484-78.117 26.307-111.738z" />
<glyph unicode="&#xe608;" d="M401.627 521.467c0-36.949-29.953-66.901-66.901-66.901s-66.901 29.953-66.901 66.901c0 36.949 29.953 66.901 66.901 66.901s66.901-29.953 66.901-66.901zM750.616 521.467c0-36.949-29.953-66.901-66.901-66.901s-66.901 29.953-66.901 66.901c0 36.949 29.953 66.901 66.901 66.901s66.901-29.953 66.901-66.901zM626.639 366.478v9.972c0 19.31-15.677 34.962-34.987 34.962h-159.33c-19.31 0-34.962-15.653-34.962-34.962v-9.972l-0.024 1.755c0-63.293 51.322-114.59 114.639-114.59 63.293 0 114.639 51.298 114.639 114.59zM512 12.222c-235.252 0-426.667 191.415-426.667 426.667s191.415 426.667 426.667 426.667 426.667-191.415 426.667-426.667-191.415-426.667-426.667-426.667zM512 816.794c-208.384 0-377.905-169.521-377.905-377.905s169.521-377.905 377.905-377.905 377.905 169.521 377.905 377.905-169.521 377.905-377.905 377.905z" />
<glyph unicode="&#xe609;" d="M640 959.872c-212.064 0-384-171.936-384-384 0-64.832 16.224-125.856 44.64-179.456l-267.008-266.944 0.224-0.192c-20.864-20.512-33.856-48.928-33.856-80.512 0-62.368 50.56-112.928 112.928-112.928 31.52 0 59.968 12.992 80.48 33.888l-0.064 0.064 266.912 266.88c53.632-28.512 114.752-44.8 179.744-44.8 212.064 0 384 171.936 384 384s-171.936 384-384 384zM153.44 9.728c-10.304-10.688-24.576-17.376-40.512-17.376-31.2 0-56.48 25.248-56.48 56.448 0 15.936 6.72 30.176 17.376 40.512l-0.288 0.256 258.112 258.112c22.56-30.432 49.44-57.312 79.808-79.936l-258.016-258.016zM640 255.84c-176.704 0-320 143.328-320 320 0 176.704 143.296 320 320 320 176.672 0 320-143.296 320-320 0-176.672-143.328-320-320-320zM640 799.872c8.8 0 16-7.168 16-16s-7.2-16-16-16c-106.048 0-192-85.984-192-192 0-8.832-7.168-16-16-16s-16 7.168-16 16c0 123.712 100.256 224 224 224z" />
<glyph unicode="&#xe60a;" d="M847.238 438.889c0-185.149-150.089-335.238-335.238-335.238s-335.238 150.089-335.238 335.238 150.089 335.238 335.238 335.238 335.238-150.089 335.238-335.238zM334.726 588.393c-36.962 0-66.901-29.964-66.901-66.926 0-36.937 29.964-66.877 66.901-66.877s66.901 29.964 66.901 66.877c0 36.937-29.989 66.926-66.901 66.926zM683.715 588.393c-36.962 0-66.901-29.964-66.901-66.926 0-36.937 29.964-66.877 66.901-66.877s66.901 29.964 66.901 66.877c0 36.937-29.94 66.926-66.901 66.926zM626.639 366.478v9.972c0 19.31-15.677 34.962-34.987 34.962h-159.33c-19.31 0-34.962-15.653-34.962-34.962v-9.972l-0.024 1.755c0-63.293 51.322-114.59 114.639-114.59 63.293 0 114.639 51.298 114.639 114.59zM512 12.222c-235.252 0-426.667 191.415-426.667 426.667s191.415 426.667 426.667 426.667 426.667-191.415 426.667-426.667-191.415-426.667-426.667-426.667zM512 816.794c-208.384 0-377.905-169.521-377.905-377.905s169.521-377.905 377.905-377.905 377.905 169.521 377.905 377.905-169.521 377.905-377.905 377.905z" />
<glyph unicode="&#xe60b;" d="M813.836 137.028c-166.4-166.424-437.272-166.424-603.672 0-166.424 166.424-166.424 437.297 0 603.672 166.4 166.473 437.272 166.473 603.672 0 166.449-166.376 166.449-437.248 0-603.672zM244.638 706.226c-147.432-147.432-147.432-387.291 0-534.723 147.456-147.432 387.291-147.432 534.723 0s147.432 387.291 0 534.723-387.267 147.432-534.723 0zM210.159 706.219l34.48 34.48 569.188-569.188-34.48-34.48-569.188 569.188z" />
<glyph unicode="&#xe60c;" d="M913.115 420.725c-6.046 0-12.093 2.097-16.945 6.388l-370.469 328.119c-8.972 8.875-19.554 7.802-26.234 1.073l-371.639-329.192c-10.533-9.338-26.673-8.338-36.084 2.219-9.338 10.557-8.338 26.722 2.219 36.059l370.469 328.094c23.747 23.893 70.266 24.99 96.305-1.048l369.298-327.046c10.581-9.362 11.557-25.527 2.219-36.059-5.071-5.705-12.093-8.606-19.139-8.606zM838.168 66.080h-652.312c-25.722 0-46.616 20.894-46.616 46.641v368.835c0 14.117 11.435 25.551 25.551 25.551s25.551-11.435 25.551-25.551v-364.373h643.365v364.373c0 14.117 11.435 25.551 25.551 25.551s25.551-11.435 25.551-25.551v-368.835c-0.024-25.746-20.919-46.641-46.641-46.641zM606.379 75.71c-14.117 0-25.551 11.435-25.551 25.576v221.403h-137.655v-221.403c0-14.141-11.435-25.576-25.551-25.576s-25.551 11.435-25.551 25.576v225.865c0 25.746 20.894 46.641 46.616 46.641h146.603c25.722 0 46.616-20.894 46.616-46.641v-225.865c0.024-14.141-11.41-25.576-25.527-25.576z" />
<glyph unicode="&#xe60d;" d="M606.671 90.948v235.861c0 25.088-20.431 45.519-45.519 45.519h-98.28c-25.088 0-45.519-20.431-45.519-45.519v-235.861h-232.448c-11.703 0-21.138 9.533-21.138 21.138v369.957l342.699 306.030 353.768-306.054v-369.957c0-11.63-9.484-21.138-21.138-21.138h-232.424zM914.286 421.895c-5.754 0-11.532 1.999-16.189 6.095l-371.517 329.094c-9.387 9.289-20.846 8.241-28.038 1l-372.687-330.094c-10.045-8.899-25.429-7.997-34.426 2.097-8.899 10.094-7.948 25.527 2.097 34.426l371.566 329.094c23.479 23.625 69.242 24.625 94.915-1.048l370.42-328.046c10.094-8.899 11.045-24.332 2.097-34.426-4.803-5.437-11.532-8.192-18.237-8.192zM839.095 66.226h-654.19c-25.088 0-45.519 20.431-45.519 45.519v369.908c0 13.483 10.898 24.381 24.381 24.381s24.381-10.898 24.381-24.381v-366.665h647.704v366.665c0 13.483 10.898 24.381 24.381 24.381s24.381-10.898 24.381-24.381v-369.908c0-25.088-20.431-45.519-45.519-45.519z" />
<glyph unicode="&#xe60e;" d="M351.89 523.271c0-23.456-19.015-42.472-42.472-42.472s-42.472 19.015-42.472 42.472c0 23.456 19.015 42.472 42.472 42.472s42.472-19.015 42.472-42.472zM552.96 523.271c0-23.456-19.015-42.472-42.472-42.472s-42.472 19.015-42.472 42.472c0 23.456 19.015 42.472 42.472 42.472s42.472-19.015 42.472-42.472zM754.054 523.271c0-23.456-19.015-42.472-42.472-42.472s-42.472 19.015-42.472 42.472c0 23.456 19.015 42.472 42.472 42.472s42.472-19.015 42.472-42.472zM512.049 35.311v0c-15.726 0-30.476 6.144-41.57 17.237l-115.712 138.679h-163.962c-58.149 0-105.472 48.372-105.472 107.861v435.517c0 59.465 47.323 107.861 105.472 107.861h642.438c58.149 0 105.423-48.372 105.423-107.861v-435.517c0-59.465-47.275-107.861-105.423-107.861h-163.913l-114.249-137.094c-12.605-12.678-27.355-18.822-43.032-18.822zM190.805 793.924c-31.378 0-56.905-26.624-56.905-59.343v-435.517c0-32.719 25.527-59.294 56.905-59.294h175.275c7.192 0 14.043-3.194 18.676-8.704l121.515-145.798c2.292-1.95 7.704-3.608 13.044 1.609l120.003 144.189c4.608 5.534 11.435 8.704 18.627 8.704h175.275c31.378 0 56.905 26.575 56.905 59.294v435.541c0 32.719-25.527 59.343-56.905 59.343h-642.414z" />
<glyph unicode="&#xe60f;" d="M763.27 12.222h-502.565c-66.048 0-119.784 53.736-119.784 119.784v613.766c0 66.048 53.736 119.784 119.784 119.784h502.54c66.072 0 119.808-53.736 119.808-119.784v-613.766c0.024-66.048-53.711-119.784-119.784-119.784zM260.706 816.794c-39.156 0-71.022-31.866-71.022-71.022v-613.766c0-39.156 31.866-71.022 71.022-71.022h502.54c39.156 0 71.046 31.866 71.046 71.022v613.766c0 39.156-31.89 71.022-71.046 71.022h-502.54zM737.816 569.156h-451.486c-13.483 0-24.381 10.898-24.381 24.381s10.898 24.381 24.381 24.381h451.486c13.483 0 24.381-10.898 24.381-24.381s-10.923-24.381-24.381-24.381zM737.816 414.484h-451.486c-13.483 0-24.381 10.898-24.381 24.381s10.898 24.381 24.381 24.381h451.486c13.483 0 24.381-10.898 24.381-24.381s-10.923-24.381-24.381-24.381zM737.816 259.811h-451.486c-13.483 0-24.381 10.898-24.381 24.381s10.898 24.381 24.381 24.381h451.486c13.483 0 24.381-10.898 24.381-24.381s-10.923-24.381-24.381-24.381z" />
<glyph unicode="&#xe610;" d="M763.27 12.222h-502.565c-66.048 0-119.784 53.736-119.784 119.784v613.766c0 66.048 53.736 119.784 119.784 119.784h502.54c66.072 0 119.808-53.736 119.808-119.784v-613.766c0.024-66.048-53.711-119.784-119.784-119.784zM260.706 816.794c-39.156 0-71.022-31.866-71.022-71.022v-613.766c0-39.156 31.866-71.022 71.022-71.022h502.54c39.156 0 71.046 31.866 71.046 71.022v613.766c0 39.156-31.89 71.022-71.046 71.022h-502.54zM858.697 132.006c0-52.663-42.715-95.403-95.427-95.403h-502.565c-52.712 0-95.403 42.74-95.403 95.403v613.766c0 52.663 42.691 95.403 95.403 95.403h502.54c52.712 0 95.427-42.74 95.427-95.403v-613.766zM762.197 593.537c0 13.483-10.898 24.381-24.381 24.381h-451.486c-13.483 0-24.381-10.898-24.381-24.381s10.898-24.381 24.381-24.381h451.486c13.458 0 24.381 10.898 24.381 24.381zM762.197 438.865c0 13.483-10.898 24.381-24.381 24.381h-451.486c-13.483 0-24.381-10.898-24.381-24.381s10.898-24.381 24.381-24.381h451.486c13.458 0 24.381 10.898 24.381 24.381zM762.197 284.192c0 13.483-10.898 24.381-24.381 24.381h-451.486c-13.483 0-24.381-10.898-24.381-24.381s10.898-24.381 24.381-24.381h451.486c13.458 0 24.381 10.923 24.381 24.381z" />
<glyph unicode="&#xe611;" d="M221.525 344.852c-6.242 0-12.483 2.389-17.237 7.144-9.533 9.533-9.533 24.942 0 34.475l290.475 290.475c9.533 9.533 24.942 9.533 34.475 0s9.533-24.942 0-34.475l-290.475-290.475c-4.754-4.779-10.996-7.144-17.237-7.144zM802.475 344.852c-6.242 0-12.483 2.389-17.237 7.144l-290.475 290.475c-9.533 9.533-9.533 24.942 0 34.475s24.942 9.533 34.475 0l290.475-290.475c9.533-9.533 9.533-24.942 0-34.475-4.754-4.779-10.996-7.144-17.237-7.144zM512-24.617c-13.483 0-24.381 10.898-24.381 24.381v635.465c0 13.483 10.898 24.381 24.381 24.381s24.381-10.898 24.381-24.381v-635.441c0-13.483-10.898-24.405-24.381-24.405zM817.518 779.954h-611.035c-13.483 0-24.381 10.898-24.381 24.381s10.898 24.381 24.381 24.381h611.060c13.483 0 24.381-10.898 24.381-24.381s-10.923-24.381-24.405-24.381z" />
<glyph unicode="&#xe612;" d="M512.064 392.16c105.888 0 192 86.144 192 192s-86.112 192-192 192c-105.888 0-192-86.112-192-192s86.112-192 192-192zM512.064 744.16c88.256 0 160-71.744 160-160s-71.744-160-160-160c-88.256 0-160 71.744-160 160s71.744 160 160 160zM512 960.032c-211.776 0-384-170.112-384-384.032 0-224 192.032-453.152 332.032-614.208 0.512-0.64 22.976-25.76 50.752-25.76 0.064 0 2.336 0 2.464 0 27.744 0 50.24 25.12 50.752 25.76 140.064 161.056 332.064 390.176 332.064 614.208 0 213.92-172.256 384.032-384.064 384.032zM515.744 3.776c-0.672-0.64-2.624-2.048-4.32-3.136-0.32 0.864-2.688 2.752-4.128 4.256-117.28 134.944-315.296 362.688-315.296 571.104 0 176.448 143.584 320.032 320 320.032 176.512 0 320.064-143.584 320.064-320.064 0-208.384-198.016-436.128-316.32-572.192z" />
<glyph unicode="&#xe613;" d="M712.85-4.601h-472.795c-13.239 0-23.966 10.703-23.966 23.966 0 13.239 10.728 23.942 23.966 23.942h472.82c45.251 0 68.584 26.21 74.362 33.743 10.508 36.035 93.623 322.536 102.814 396.215 2.146 17.018-0.634 29.842-8.558 39.107-13.995 16.603-40.984 18.408-41.228 18.432l-241.566-0.024c-7.704 0-14.921 3.706-19.456 9.947-4.51 6.242-5.705 14.312-3.291 21.626 28.55 85.65 18.164 216.113-37.986 255.927-17.774 12.581-33.28 18.408-41.618 15.36-3.95-1.438-6.607-5.218-7.997-7.851 21.431-272.116-194.974-304.64-197.193-304.957-13.214-1.853-25.186 7.436-26.965 20.529s7.363 25.137 20.431 26.965v0c7.217 1.073 176.25 28.136 155.502 258.926-0.268 2.853 0 5.754 0.756 8.533 0.902 3.267 9.679 32.427 39.375 43.008 24.283 8.704 53.077 1.536 85.431-21.382 75.020-53.175 84.894-185.563 64.39-278.674h211.163c5.851-0.219 49.396-2.926 76.873-35.377 16.774-19.822 23.333-45.373 19.505-76.020-10.264-82.066-101.571-394.216-105.448-407.454-0.585-2.024-1.463-3.95-2.536-5.705-1.487-2.414-36.669-58.782-116.785-58.782zM240.055-4.601h-92.599c-34.231 0-62.123 27.867-62.123 62.098v450.999c0 34.231 27.892 62.147 62.123 62.147h92.599c34.28 0 62.147-27.916 62.147-62.147v-451.023c0-34.231-27.867-62.074-62.147-62.074zM147.456 522.686c-7.802 0-14.165-6.388-14.165-14.19v-451.023c0-7.802 6.363-14.165 14.165-14.165h92.599c7.826 0 14.214 6.363 14.214 14.165v451.023c0 7.802-6.388 14.19-14.214 14.19h-92.599z" />
<glyph unicode="&#xe614;" d="M246.784 46.502c0-21.675-17.579-39.278-39.229-39.278h-70.656c-21.65 0-39.229 17.627-39.229 39.278v464.043c0 21.723 17.603 39.278 39.229 39.278h70.632c21.675 0 39.229-17.579 39.229-39.278v-464.043zM207.555-5.113h-70.656c-28.453 0-51.566 23.138-51.566 51.614v464.043c0 28.428 23.113 51.614 51.566 51.614h70.632c28.453 0 51.566-23.186 51.566-51.614v-464.043c0.024-28.477-23.089-51.614-51.541-51.614zM136.899 537.51c-14.824 0-26.917-12.093-26.917-26.941v-464.043c0-14.848 12.069-26.941 26.917-26.941h70.632c14.799 0 26.917 12.093 26.917 26.941v464.018c0 14.848-12.093 26.941-26.917 26.941h-70.632zM330.898 7.224h387.779c69.486 0 99.060 48.664 99.060 48.664s97.28 331.898 107.715 415.378c10.435 83.383-74.703 86.894-74.703 86.894h-249.588c29.525 88.576 25.381 239.153-48.25 291.279-73.63 52.102-90.356-8.655-90.356-8.655 16.165-179.712-72.655-250.417-131.657-277.382v-556.178zM718.702-5.113h-387.803c-12.337 0-12.337 0-12.337 99.279v469.236c0 4.852 2.779 9.24 7.217 11.24 53.224 24.332 140.142 90.99 124.465 264.997-0.098 1.487 0 2.999 0.414 4.389 3.682 13.434 18.993 38.863 50.274 38.863 17.335 0 37.23-7.899 59.197-23.381 75.752-53.76 81.774-198.388 57.563-289.012h233.058c2.316-0.098 44.398-2.146 69.705-32.085 14.921-17.627 20.724-40.765 17.237-68.706-10.459-83.432-104.131-403.724-108.154-417.28-0.293-1.048-0.731-1.999-1.292-2.95-1.341-2.219-34.011-54.589-109.544-54.589zM343.235 19.561h375.442c56.101 0 82.798 34.426 87.723 41.521 7.631 26.283 97.012 333.288 106.813 411.721 2.584 20.773-1.292 37.474-11.508 49.615-18.213 21.626-51.176 23.43-51.493 23.43h-249.051c-3.95 0-7.68 1.902-9.947 5.144-2.389 3.194-2.999 7.339-1.731 11.093 27.746 83.237 24.527 228.962-43.666 277.285-17.408 12.337-32.914 18.846-44.885 18.846-16.92 0-23.893-13.946-25.868-18.944 15.287-179.712-72.704-254.196-131.828-283.624 0-60.904 0-460.629 0-536.088z" />
<glyph unicode="&#xe615;" d="M814.665 128.739h-605.33c-66.974 0-121.466 51.907-121.466 115.712v324.632c0 0.195 0 0.39 0 0.561 0.049 4.706 0.049 63.659 0.049 63.659 0 63.805 54.491 115.712 121.466 115.712h605.282c66.974 0 121.466-51.907 121.466-115.712v-388.852c0-63.805-54.491-115.712-121.466-115.712zM135.875 569.083h0.731v-324.608c0-36.962 32.622-66.95 72.704-66.95h605.33c40.107 0 72.704 29.989 72.704 66.95v388.852c0 36.962-32.622 66.95-72.704 66.95h-605.257c-40.107 0-72.704-29.989-72.704-66.95v-32.134c-0.024-13.361-0.049-23.918-0.805-32.11zM512.39 277.219c-22.43 0-45.056 8.533-62.245 25.722l-346.258 291.864c-7.704 6.534-8.704 18.042-2.194 25.771 6.51 7.753 18.042 8.704 25.771 2.194l347.404-292.913c20.943-20.846 53.297-20.846 73.167-1.048l348.574 293.961c7.656 6.534 19.212 5.583 25.771-2.194 6.534-7.704 5.534-19.237-2.194-25.771l-347.429-292.913c-16.384-16.384-38.302-24.674-60.367-24.674zM908.361 208.172c-4.169 0-8.363 1.39-11.776 4.291l-226.645 191.098c-7.704 6.485-8.704 18.042-2.194 25.771 6.51 7.704 18.042 8.704 25.771 2.194l226.645-191.098c7.704-6.485 8.704-18.042 2.194-25.771-3.633-4.291-8.802-6.485-13.995-6.485zM115.639 208.172c-5.193 0-10.362 2.194-13.97 6.485-6.534 7.704-5.534 19.285 2.194 25.771l226.767 191.195c7.656 6.534 19.212 5.534 25.771-2.194 6.534-7.704 5.534-19.285-2.194-25.771l-226.767-191.195c-3.438-2.901-7.631-4.291-11.8-4.291z" />
<glyph unicode="&#xe616;" d="M816.567 12.442h-609.134c-67.34 0-122.1 52.151-122.1 116.297v572.782c0 64.098 54.76 116.297 122.1 116.297h100.254c13.483 0 24.381-10.898 24.381-24.381s-10.898-24.381-24.381-24.381h-100.254c-40.424 0-73.338-30.281-73.338-67.535v-572.806c0-37.23 32.914-67.535 73.338-67.535h609.134c40.424 0 73.338 30.281 73.338 67.535v326.705c0 13.483 10.898 24.381 24.381 24.381s24.381-10.898 24.381-24.381v-326.705c0-64.146-54.76-116.273-122.1-116.273zM366.86 171.527c-13.483 0-24.381 10.898-24.381 24.381v442.149c0 56.247 47.982 102.010 106.959 102.010h463.628c13.483 0 24.381-10.898 24.381-24.381s-10.898-24.381-24.381-24.381h-463.628c-32.085 0-58.197-23.893-58.197-53.248v-442.149c0-13.483-10.898-24.381-24.381-24.381zM797.257 576.398c-6.242 0-12.483 2.389-17.237 7.144-9.533 9.533-9.533 24.942 0 34.475l98.548 98.523-107.179 107.179c-9.533 9.533-9.533 24.942 0 34.475s24.942 9.533 34.475 0l124.44-124.44c4.584-4.584 7.144-10.801 7.144-17.237 0-6.485-2.56-12.678-7.144-17.237l-115.785-115.761c-4.779-4.754-11.020-7.119-17.262-7.119z" />
<glyph unicode="&#xe617;" d="M933.248 624.928c-40 10.496-134.048 10.368-271.616 14.016 6.496 30.016 8 57.088 8 105.152 0 114.816-83.648 215.936-157.632 215.936-52.256 0-95.328-42.72-96-95.264-0.704-64.448-20.64-175.744-128-232.192-7.872-4.16-30.4-15.264-33.696-16.704l1.696-1.44c-16.8 14.496-40.096 25.6-64 25.6h-96c-52.928 0-96-43.072-96-96v-512c0-52.928 43.072-96 96-96h96c38.080 0 69.952 23.008 85.376 55.264 0.384-0.128 1.056-0.32 1.504-0.384 2.112-0.576 4.608-1.184 7.648-1.984 0.576-0.16 0.864-0.224 1.472-0.384 18.432-4.576 53.92-13.056 129.76-30.496 16.256-3.712 102.144-22.016 191.104-22.016h174.944c53.312 0 91.744 20.512 114.624 61.696 0.32 0.64 7.68 15.008 13.696 34.432 4.512 14.624 6.176 35.328 0.736 56.32 34.368 23.616 45.44 59.328 52.64 82.56 12.064 38.112 8.448 66.752 0.064 87.264 19.328 18.24 35.808 46.048 42.752 88.512 4.32 26.304-0.32 53.376-12.448 75.904 18.112 20.352 26.368 45.952 27.328 69.632l0.384 6.688c0.224 4.192 0.416 6.784 0.416 16 0 40.416-28 91.968-90.752 109.888zM224 32.032c0-17.696-14.304-32-32-32h-96c-17.696 0-32 14.304-32 32v512c0 17.696 14.304 32 32 32h96c17.696 0 32-14.304 32-32v-512zM959.264 494.912c-0.64-15.808-7.264-46.88-63.264-46.88-48 0-64 0-64 0-8.864 0-16-7.168-16-16s7.136-16 16-16c0 0 14.016 0 62.016 0s54.304-39.808 51.2-59.008c-3.968-23.872-15.168-68.992-69.216-68.992-53.984 0-76 0-76 0-8.864 0-16-7.136-16-16 0-8.8 7.136-16 16-16 0 0 38.016 0 63.008 0 54.016 0 49.248-41.184 41.504-65.76-10.208-32.288-16.448-62.24-84.512-62.24-23.008 0-52.192 0-52.192 0-8.864 0-16-7.136-16-16 0-8.8 7.136-16 16-16 0 0 22.176 0 50.176 0 35.008 0 36.64-33.12 32.992-44.992-4-12.992-8.736-22.624-8.928-23.072-9.664-17.44-25.248-27.936-58.24-27.936h-174.944c-87.872 0-175.040 19.936-177.28 20.448-132.928 30.624-139.936 32.992-148.288 35.36 0 0-27.072 4.576-27.072 28.192l-0.224 441.984c0 15.008 9.568 28.576 25.408 33.344 1.984 0.768 4.672 1.6 6.592 2.4 146.176 60.544 190.688 193.28 192 302.272 0.192 15.328 12 32 32 32 33.824 0 93.632-67.904 93.632-151.936 0-75.872-3.072-88.992-29.632-168.064 320 0 317.76-4.608 345.984-12 35.008-10.016 38.016-39.008 38.016-48.992 0-10.976-0.32-9.376-0.736-20.128zM144 128.032c-26.496 0-48-21.504-48-48s21.504-48 48-48 48 21.504 48 48-21.504 48-48 48zM144 64.032c-8.8 0-16 7.2-16 16s7.2 16 16 16 16-7.2 16-16-7.2-16-16-16z" />
<glyph unicode="&#xe618;" d="M864 960.032h-704c-70.688 0-128-57.312-128-128v-768c0-70.688 57.312-128 128-128h704c70.688 0 128 57.312 128 128v768c0 70.688-57.312 128-128 128zM928 64.032c0-35.264-28.736-64-64-64h-704c-35.296 0-64 28.736-64 64v768c0 35.296 28.704 64 64 64h704c35.264 0 64-28.704 64-64v-768zM832 832.032h-640c-17.696 0-32-14.304-32-32v-576c0-17.696 14.304-32 32-32h640c17.696 0 32 14.304 32 32v576c0 17.696-14.304 32-32 32zM832 800.032v-443.808l-104 112.96c-6.112 6.912-14.816 10.848-24 10.848s-17.952-3.936-24-10.848l-83.328-94.4-252.672 286.4c-6.080 6.912-14.816 10.848-24 10.848s-17.92-3.936-24-10.848l-104-119.936v258.784h640zM192 492.832l128 147.2 276.672-313.632 88.384-102.368h-493.056v268.8zM727.68 224.032l-109.696 126.56 86.016 97.44 128-140.128v-83.872h-104.32zM640 544.032c52.992 0 96 42.976 96 96s-43.008 96-96 96c-53.056 0-96-42.976-96-96s42.944-96 96-96zM640 704.032c35.264 0 64-28.704 64-64s-28.736-64-64-64c-35.328 0-64 28.704-64 64s28.672 64 64 64z" />
<glyph unicode="&#xe619;" d="M379.758 230.798c12.605-54.467 18.822-122.295 0.293-152.893-5.266-8.704-11.947-13.044-23.064-14.897-7.753-1.341-15.189-1.999-22.089-1.999-23.333 0-40.96 7.144-55.467 22.43-24.478 25.819-38.741 73.655-40.741 134.485l141.068 12.873zM415.89 283.070l-225.426-20.626c-7.29-137.167 35.084-250.222 144.408-250.222 9.533 0 19.627 0.853 30.208 2.658 131.73 22.211 50.81 268.19 50.81 268.19v0zM311.784 816.794h2.097c105.228-2.609 114.347-150.772 115.102-180.468 0.853-32.329-30.086-142.385-57.003-226.085l-161.963-9.24c-7.387 41.423-18.359 106.667-25.039 163.523-6.339 53.76 12.581 163.133 63.415 220.331 19.115 21.504 39.863 31.939 63.39 31.939zM311.784 865.556c-136.387 0-186.295-213.285-175.25-306.761 11.093-94.232 33.329-208.945 33.329-208.945l238.056 13.58c0 0 71.436 212.529 69.803 274.188-1.56 61.708-23.771 224.524-162.67 227.913-1.073 0.024-2.17 0.024-3.267 0.024v0zM644.242 230.798l141.068-12.898c-1.999-60.806-16.286-108.666-40.765-134.485-14.507-15.287-32.11-22.43-55.418-22.43-6.924 0-14.385 0.658-22.138 1.999-11.093 1.853-17.774 6.193-23.040 14.897-18.554 30.622-12.337 98.426 0.293 152.917zM608.11 283.070c0 0-80.945-246.004 50.761-268.19 10.63-1.804 20.675-2.658 30.232-2.658 109.324 0 151.674 113.054 144.408 250.246l-225.402 20.602zM712.241 816.794c23.528 0 44.251-10.435 63.366-31.963 50.81-57.149 69.754-166.571 63.439-220.331-6.68-56.856-17.676-122.1-25.039-163.523l-161.938 9.24c-26.917 83.724-57.905 193.755-57.076 226.133 0.756 29.672 9.923 177.81 115.151 180.419h2.097zM712.216 865.556c-1.097 0-2.194 0-3.291-0.049-138.898-3.389-161.085-166.181-162.694-227.913-1.585-61.659 69.851-274.188 69.851-274.188l238.031-13.58c0 0 22.235 114.712 33.329 208.945 11.020 93.501-38.839 306.834-175.226 306.786v0z" />
<glyph unicode="&#xe61a;" d="M190.464 262.468l225.426 20.626c0 0 80.896-246.004-50.81-268.19-131.779-22.26-182.54 98.377-174.616 247.564zM169.886 349.85l238.056 13.58c0 0 71.436 212.529 69.803 274.188-1.56 61.708-23.771 224.524-162.67 227.913-138.85 3.486-189.659-212.48-178.517-306.712 11.093-94.257 33.329-208.969 33.329-208.969zM833.512 262.468l-225.378 20.626c0 0-80.945-246.004 50.761-268.19 131.755-22.26 182.516 98.377 174.616 247.564zM854.114 349.85l-238.056 13.58c0 0-71.436 212.529-69.851 274.188 1.609 61.708 23.82 224.524 162.718 227.913 138.85 3.486 189.611-212.48 178.517-306.712s-33.329-208.969-33.329-208.969z" />
<glyph unicode="&#xe61b;" d="M1005.248 717.312l-192 192c-12 12-28.32 18.72-45.248 18.72h-672c-52.928 0-96-43.040-96-96v-768c0-52.928 43.072-96 96-96h832c52.928 0 96 43.072 96 96v608c0 16.992-6.752 33.28-18.752 45.28zM960 64.032c0-17.696-14.304-32-32-32h-832c-17.696 0-32 14.304-32 32v768c0 17.696 14.304 32 32 32h640v-128h-0.064c0-53.024 43.008-96 96-96h128.064v-576zM863.936 672.032h-32c-35.264 0-64 28.704-64 64h0.064v128l192-192h-96.064zM496 704.032c-8.832 0-16 7.136-16 16s7.168 16 16 16h160c8.8 0 16-7.168 16-16s-7.2-16-16-16h-160zM496 608.032c-8.832 0-16 7.168-16 16s7.168 16 16 16h160c8.8 0 16-7.168 16-16s-7.2-16-16-16h-160zM480 528.032c0 8.864 7.168 16 16 16h384c8.8 0 16-7.168 16-16s-7.2-16-16-16h-384c-8.832 0-16 7.168-16 16zM880 352.032c8.8 0 16-7.136 16-16 0-8.8-7.2-16-16-16h-736c-8.832 0-16 7.2-16 16 0 8.864 7.168 16 16 16h736zM880 256.032c8.8 0 16-7.136 16-16 0-8.8-7.2-16-16-16h-736c-8.832 0-16 7.2-16 16 0 8.864 7.168 16 16 16h736zM880 160.032c8.8 0 16-7.136 16-16 0-8.8-7.2-16-16-16h-736c-8.832 0-16 7.2-16 16 0 8.864 7.168 16 16 16h736zM880 448.032c8.8 0 16-7.168 16-16s-7.2-16-16-16h-736c-8.832 0-16 7.136-16 16s7.168 16 16 16h736zM160 512.032h224c17.696 0 32 14.304 32 32v192c0 17.696-14.304 32-32 32h-224c-17.696 0-32-14.304-32-32v-192c0-17.664 14.304-32 32-32zM192 704.032h160v-128h-160v128z" />
<glyph unicode="&#xe61c;" d="M512 640c-141.408 0-256-114.592-256-256 0-141.376 114.592-256 256-256 141.376 0 256 114.624 256 256s-114.624 256-256 256zM657.76 259.040c-68.992-80.512-190.176-89.824-270.688-20.8-80.544 68.992-89.824 190.208-20.8 270.688 68.96 80.544 190.176 89.824 270.688 20.8 80.48-68.96 89.792-190.208 20.8-270.688zM512 512c8.832 0 16-7.168 16-16s-7.168-16-16-16c-53.024 0-95.968-42.976-96-95.968v-0.064c0-8.8-7.168-16-16-16s-16 7.2-16 16v0.064c0.032 70.656 57.312 127.968 128 127.968zM943.744 670.688l-138.688 23.136-43.936 109.888c-14.688 36.64-49.696 60.32-89.12 60.32h-320c-39.424 0-74.432-23.68-89.152-60.352l-43.904-109.856-138.656-23.136c-46.528-7.712-80.288-47.52-80.288-94.656v-480c0-52.928 43.072-96 96-96h832c52.928 0 96 43.072 96 96v480c0 47.136-33.76 86.944-80.256 94.656zM960 96.032c0-17.696-14.304-32-32-32h-832c-17.696 0-32 14.304-32 32v480c0 15.648 11.328 28.992 26.752 31.552l174.208 29.024 57.312 143.296c4.896 12.128 16.64 20.128 29.728 20.128h320c13.056 0 24.8-7.968 29.696-20.128l57.312-143.296 174.24-29.024c15.424-2.56 26.752-15.904 26.752-31.552v-480z" />
<glyph unicode="&#xe61d;" d="M972.512 554.272l-98.048 19.648c-4.928 14.176-10.752 27.936-17.184 41.248l55.552 83.328c16.928 25.376 13.568 59.2-8 80.736l-61.568 61.568c-12.384 12.384-28.736 18.752-45.312 18.752-12.256 0-24.64-3.52-35.424-10.752l-83.328-55.52c-13.376 6.464-27.136 12.224-41.312 17.152l-19.648 98.080c-5.952 29.952-32.256 51.456-62.752 51.456h-87.040c-30.496 0-56.768-21.536-62.752-51.456l-19.648-98.080c-14.176-4.928-27.936-10.72-41.248-17.152l-83.296 55.52c-10.848 7.232-23.2 10.752-35.488 10.752-16.544 0-32.896-6.368-45.28-18.752l-61.536-61.568c-21.568-21.568-24.928-55.36-8-80.736l55.52-83.328c-6.464-13.344-12.224-27.104-17.152-41.28l-98.112-19.616c-29.92-5.984-51.456-32.256-51.456-62.752v-87.040c0-30.496 21.536-56.8 51.456-62.752l98.080-19.68c4.928-14.176 10.72-27.936 17.152-41.248l-55.488-83.328c-16.928-25.376-13.568-59.2 8-80.736l61.568-61.568c12.384-12.384 28.736-18.752 45.28-18.752 12.288 0 24.672 3.552 35.456 10.752l83.328 55.552c13.344-6.496 27.104-12.256 41.28-17.184l19.616-98.048c5.984-29.952 32.256-51.488 62.752-51.488h87.040c30.496 0 56.8 21.568 62.752 51.488l19.68 98.048c14.176 4.928 27.936 10.752 41.248 17.184l83.328-55.552c10.816-7.2 23.2-10.752 35.424-10.752 16.576 0 32.928 6.368 45.312 18.752l61.568 61.568c21.568 21.568 24.928 55.36 8 80.736l-55.552 83.328c6.496 13.376 12.256 27.136 17.184 41.312l98.048 19.616c29.92 5.92 51.488 32.256 51.488 62.752v87.040c0 30.496-21.568 56.768-51.488 62.752zM861.888 384.832c-22.24-4.448-40.448-20.32-47.872-41.76-4.128-11.808-8.928-23.264-14.304-34.368-9.952-20.448-8.256-44.576 4.32-63.424l55.552-83.328-61.568-61.568-83.328 55.552c-10.688 7.136-23.072 10.752-35.488 10.752-9.504 0-19.072-2.112-27.872-6.368-11.136-5.376-22.56-10.24-34.432-14.368-21.376-7.424-37.248-25.632-41.696-47.872l-19.68-98.112h-87.040l-19.616 98.112c-4.448 22.24-20.32 40.448-41.728 47.872-11.808 4.128-23.296 8.928-34.4 14.304-8.832 4.32-18.368 6.432-27.904 6.432-12.448 0-24.8-3.616-35.488-10.752l-83.328-55.552-61.568 61.568 55.52 83.328c12.576 18.88 14.208 43.008 4.384 63.36-5.376 11.136-10.208 22.56-14.336 34.432-7.424 21.376-25.664 37.248-47.872 41.696l-98.080 19.68-0.064 87.072 98.112 19.616c22.208 4.448 40.448 20.32 47.872 41.728 4.128 11.808 8.896 23.296 14.304 34.4 9.92 20.416 8.256 44.544-4.352 63.392l-55.488 83.328 61.536 61.568 83.328-55.52c10.688-7.136 23.072-10.752 35.488-10.752 9.504 0 19.040 2.112 27.872 6.368 11.104 5.376 22.56 10.208 34.4 14.336 21.408 7.424 37.28 25.664 41.728 47.872l19.648 98.080 87.040 0.032 19.616-98.112c4.448-22.208 20.32-40.448 41.76-47.872 11.808-4.128 23.264-8.896 34.368-14.304 8.864-4.288 18.368-6.4 27.936-6.4 12.448 0 24.8 3.616 35.488 10.752l83.328 55.52 61.568-61.568-55.552-83.328c-12.576-18.88-14.176-42.976-4.384-63.36 5.376-11.104 10.24-22.56 14.368-34.4 7.424-21.408 25.632-37.28 47.872-41.728l98.048-19.648 0.096-87.040-98.112-19.648zM512 672c-123.68 0-224-100.32-224-224 0-123.712 100.32-224 224-224s224 100.32 224 224c0 123.68-100.32 224-224 224zM512 251.968c-108.224 0-196 87.808-196 196 0 108.224 87.776 196 196 196 108.192 0 196-87.776 196-196 0-108.192-87.808-196-196-196zM512 576c-70.72 0-128-57.28-128-128 0-70.688 57.28-128 128-128 70.688 0 128 57.312 128 128s-57.312 128-128 128zM512 351.968c-52.992 0-96 43.008-96 96s43.008 96 96 96 96-43.008 96-96c0-52.992-43.008-96-96-96z" />
<glyph unicode="&#xe61e;" d="M512 736.032c8.832 0 16-7.168 16-16s-7.2-16-16-16c-170.464 0-320-89.728-320-192 0-8.832-7.168-16-16-16s-16 7.168-16 16c0 121.408 161.184 224 352 224zM512 896.032c-282.784 0-512-171.936-512-384 0-132.064 88.928-248.512 224.256-317.632 0-0.864-0.256-1.44-0.256-2.368 0-57.376-42.848-119.136-61.696-151.552 0.032 0 0.064 0 0.064 0-1.504-3.52-2.368-7.392-2.368-11.456 0-16 12.96-28.992 28.992-28.992 3.008 0 8.288 0.8 8.16 0.448 100 16.384 194.208 108.256 216.096 134.88 31.968-4.704 64.928-7.328 98.752-7.328 282.72 0 512 171.936 512 384s-229.248 384-512 384zM512 192.032c-29.344 0-59.456 2.24-89.472 6.624-3.104 0.512-6.208 0.672-9.28 0.672-19.008 0-37.216-8.448-49.472-23.36-13.696-16.672-52.672-53.888-98.72-81.248 12.48 28.64 22.24 60.736 22.912 93.824 0.192 2.048 0.288 4.128 0.288 5.888 0 24.064-13.472 46.048-34.88 56.992-118.592 60.544-189.376 157.984-189.376 260.608 0 176.448 200.96 320 448 320 246.976 0 448-143.552 448-320s-200.992-320-448-320z" />
<glyph unicode="&#xe61f;" d="M657.707 622.326l-60.373 60.373-256-256 256-256 60.373 60.373-195.627 195.627z" />
<glyph unicode="&#xe620;" d="M426.667 682.699l-60.373-60.373 195.627-195.627-195.627-195.627 60.373-60.373 256 256z" />
<glyph unicode="&#xe621;" d="M512 597.366l-256-256 60.373-60.373 195.627 195.627 195.627-195.627 60.373 60.373z" />
<glyph unicode="&#xe622;" d="M707.627 572.406l-195.627-195.627-195.627 195.627-60.373-60.373 256-256 256 256z" />
<glyph unicode="&#xe623;" d="M804.224 538.752c0 165.28-180.064 299.264-402.112 299.264-222.080 0-402.112-133.984-402.112-299.264 0-99.328 65.024-187.328 165.12-241.76-0.288-0.864-79.744-145.44-79.744-145.44s242.624 92.544 243.296 92.928c23.808-3.296 48.352-4.96 73.44-4.96 222.048 0 402.112 133.984 402.112 299.232zM1100.32 445.248c0 165.248-169.504 298.048-352.992 299.232 263.040-262.016-46.752-541.184-299.232-541.184 0 0 28.064-57.28 250.112-57.28 25.056 0 49.632 1.728 73.44 4.992 0.672-0.448 243.328-92.928 243.328-92.928s-79.488 144.544-79.744 145.408c100.064 54.432 165.088 142.464 165.088 241.76z" horiz-adv-x="1100" />
<glyph unicode="&#xe624;" d="M928 960.032h-704c-53.024 0-96-42.944-96-96v-64h-32c-53.024 0-96-42.944-96-96v-640c0-70.688 57.312-128 128-128h768c70.688 0 128 57.312 128 128v800c0 53.056-43.008 96-96 96zM960 64.032c0-35.264-28.736-64-64-64h-768c-35.296 0-64 28.736-64 64v640c0 17.664 14.336 32 32 32h32v-640c0-17.696 14.304-32 32-32s32 14.304 32 32v768c0 17.664 14.336 32 32 32h704c17.632 0 32-14.336 32-32v-800zM623.936 543.872c-8.8 0-16 7.168-16 16s7.2 16 16 16h256c8.864 0 16-7.168 16-16s-7.136-16-16-16h-256zM623.936 639.872c-8.8 0-16 7.168-16 16s7.2 16 16 16h256c8.864 0 16-7.168 16-16s-7.136-16-16-16h-256zM623.936 735.872c-8.8 0-16 7.168-16 16s7.2 16 16 16h256c8.864 0 16-7.168 16-16s-7.136-16-16-16h-256zM528 95.904c8.832 0 16-7.2 16-16 0-8.864-7.2-16-16-16h-256c-8.832 0-16 7.136-16 16 0 8.8 7.168 16 16 16h256zM528 191.904c8.832 0 16-7.2 16-16 0-8.864-7.2-16-16-16h-256c-8.832 0-16 7.136-16 16 0 8.8 7.168 16 16 16h256zM528 287.904c8.832 0 16-7.2 16-16 0-8.864-7.2-16-16-16h-256c-8.832 0-16 7.136-16 16 0 8.8 7.168 16 16 16h256zM880 95.904c8.8 0 16-7.2 16-16 0-8.864-7.2-16-16-16h-256c-8.864 0-16 7.136-16 16 0 8.8 7.136 16 16 16h256zM880 191.904c8.8 0 16-7.2 16-16 0-8.864-7.2-16-16-16h-256c-8.864 0-16 7.136-16 16 0 8.8 7.136 16 16 16h256zM880 287.904c8.8 0 16-7.2 16-16 0-8.864-7.2-16-16-16h-256c-8.864 0-16 7.136-16 16 0 8.8 7.136 16 16 16h256zM880 479.904c8.8 0 16-7.168 16-16s-7.2-16-16-16h-608c-8.832 0-16 7.168-16 16s7.168 16 16 16h608zM880 383.904c8.8 0 16-7.2 16-16 0-8.864-7.2-16-16-16h-608c-8.832 0-16 7.136-16 16 0 8.8 7.168 16 16 16h608zM288 544.032h224c17.696 0 32 14.304 32 32v223.872c0 17.696-14.304 32-32 32h-224c-17.696 0-32-14.304-32-32v-223.872c0-17.664 14.304-32 32-32zM320 768.032h160v-160h-160v160z" />
<glyph unicode="&#xe625;" d="M938.688 864.032h-138.688v64c0 17.696-14.304 32-32 32s-32-14.304-32-32v-64h-192v64c0 17.696-14.336 32-32 32s-32-14.304-32-32v-64h-192v64c0 17.696-14.336 32-32 32s-32-14.304-32-32v-64h-138.656c-47.136 0-85.344-38.176-85.344-85.312v-757.344c0-47.136 38.208-85.344 85.344-85.344h853.344c47.136 0 85.312 38.208 85.312 85.344v757.344c0 47.136-38.176 85.312-85.312 85.312zM960 21.376c0-11.776-9.568-21.344-21.312-21.344h-853.344c-11.776 0-21.344 9.568-21.344 21.344v757.344c0 11.744 9.568 21.312 21.344 21.312h138.656v-64c0-17.696 14.336-32 32-32s32 14.304 32 32v64h192v-64c0-17.696 14.336-32 32-32s32 14.304 32 32v64h192v-64c0-17.696 14.304-32 32-32s32 14.304 32 32v64h138.688c11.744 0 21.312-9.568 21.312-21.312v-757.344zM224 576.032h128v-96h-128zM224 416.032h128v-96h-128zM224 256.032h128v-96h-128zM448 256.032h128v-96h-128zM448 416.032h128v-96h-128zM448 576.032h128v-96h-128zM672 256.032h128v-96h-128zM672 416.032h128v-96h-128zM672 576.032h128v-96h-128z" />
<glyph unicode="&#xe626;" d="M1014.592 731.776l-90.848 90.848c-12.576 12.576-32.832 12.576-45.408 0l-464.48-490.368-266.24 266.368c-12.704 12.704-33.312 12.704-46.016 0l-92.032-92.096c-12.704-12.672-12.704-33.28 0-46.016l378.656-387.456c7.328-7.36 17.28-9.888 26.848-8.64 9.888-1.472 20.192 1.024 27.776 8.64l571.744 613.28c12.544 12.544 12.544 32.896 0 45.44z" />
<glyph unicode="&#xe627;" d="M983.072 743.264l-294.304-296.096 294.304-294.336c12.32-12.288 12.32-32.224 0-44.544l-133.632-133.6c-12.256-12.32-32.192-12.32-44.512 0l-293.824 293.824-292.064-293.824c-12.288-12.32-32.224-12.32-44.544 0l-133.6 133.6c-12.288 12.32-12.288 32.256 0 44.544l292.064 293.824-292.032 292.032c-12.288 12.288-12.288 32.224 0 44.544l133.6 133.6c12.288 12.32 32.224 12.32 44.544 0l291.52-291.52 294.368 296.096c12.32 12.32 32.256 12.32 44.512 0l133.632-133.6c12.256-12.32 12.256-32.256-0.032-44.544z" />
<glyph unicode="&#xe628;" d="M512 213.366c47.147 0 85.333 38.187 85.333 85.333s-38.187 85.333-85.333 85.333-85.333-38.187-85.333-85.333 38.187-85.333 85.333-85.333zM768 597.366h-42.667v85.333c0 117.76-95.573 213.333-213.333 213.333s-213.333-95.573-213.333-213.333h81.067c0 72.96 59.307 132.267 132.267 132.267s132.267-59.307 132.267-132.267v-85.333h-388.267c-47.147 0-85.333-38.187-85.333-85.333v-426.667c0-47.147 38.187-85.333 85.333-85.333h512c47.147 0 85.333 38.187 85.333 85.333v426.667c0 47.147-38.187 85.333-85.333 85.333zM768 85.366h-512v426.667h512v-426.667z" />
<glyph unicode="&#xe629;" d="M768 597.366h-42.667v85.333c0 117.76-95.573 213.333-213.333 213.333s-213.333-95.573-213.333-213.333v-85.333h-42.667c-47.147 0-85.333-38.187-85.333-85.333v-426.667c0-47.147 38.187-85.333 85.333-85.333h512c47.147 0 85.333 38.187 85.333 85.333v426.667c0 47.147-38.187 85.333-85.333 85.333zM512 814.966c72.96 0 132.267-59.307 132.267-132.267v-85.333h-260.267v85.333h-4.267c0 72.96 59.307 132.267 132.267 132.267zM768 85.366h-512v426.667h512v-426.667zM512 213.366c47.147 0 85.333 38.187 85.333 85.333s-38.187 85.333-85.333 85.333-85.333-38.187-85.333-85.333 38.187-85.333 85.333-85.333z" />
<glyph unicode="&#xe62a;" d="M298.24 469.366l-170.24-170.667 170.24-170.667v128h299.093v85.333h-299.093v128zM896 554.699l-170.24 170.667v-128h-299.093v-85.333h299.093v-128l170.24 170.667z" />
<glyph unicode="&#xe62b;" d="M682.667 212.939v299.093h-85.333v-299.093h-128l170.667-170.24 170.667 170.24h-128zM384 810.699l-170.667-170.24h128v-299.093h85.333v299.093h128l-170.667 170.24z" />
<glyph unicode="&#xe62c;" d="M810.667 469.366h-72.533c0-31.787-6.613-61.227-18.56-87.467l52.48-52.48c24.32 41.6 38.613 89.173 38.613 139.947zM639.36 462.326c0 2.347 0.64 4.693 0.64 7.040v256c0 70.827-57.387 128-128 128s-128-57.173-128-128v-7.893l255.36-255.147zM182.4 810.699l-54.4-54.4 256.427-256.427v-30.72c0-70.613 56.96-128 127.573-128 9.6 0 18.773 1.28 27.733 3.2l70.827-70.827c-30.507-14.080-64-21.973-98.56-21.973-117.76 0-226.133 89.6-226.133 217.6h-72.533c0-145.707 116.053-266.027 256-286.72v-139.733h85.333v139.947c38.613 5.76 75.307 19.2 108.373 38.613l178.56-178.56 54.4 54.187-713.6 713.813z" />
<glyph unicode="&#xe62d;" d="M682.667 384.032h-128v426.667h-85.333v-426.667h-128l170.667-170.667 170.667 170.667zM170.667 128.032v-85.333h682.667v85.333h-682.667z" />
<glyph unicode="&#xe62e;" d="M341.333 469.366h128v-426.667h85.333v426.667h128l-170.667 170.667-170.667-170.667zM170.667 810.699v-85.333h682.667v85.333h-682.667z" />
<glyph unicode="&#xe62f;" d="M1021.248 787.232l-93.248-371.2c0-4.448-0.896-8.64-2.496-12.448-3.264-7.68-9.376-13.824-17.024-17.056-3.84-1.632-8.064-2.496-12.48-2.496h-608l25.6-128h550.4c17.696 0 32-14.304 32-32s-14.304-32-32-32h-576c-17.696 0-32 14.304-32 32l-121.6 608h-102.4c-17.664 0-32 14.336-32 32s14.336 32 32 32h128c17.696 0 32-14.336 32-32l6.4-32h793.6c17.696 0 32-14.336 32-32 0-4.576-1.024-8.864-2.752-12.8zM275.2 448.032h108.8v320h-172.8l64-320zM576 768.032h-160v-320h160v320zM768 768.032h-160v-320h160v320zM800 768.032v-320h72.096l81.056 320h-153.152zM352 128.032c53.024 0 96-43.008 96-96s-42.976-96-96-96-96 43.008-96 96 42.976 96 96 96zM352 0.032c17.696 0 32 14.304 32 32s-14.304 32-32 32-32-14.304-32-32 14.304-32 32-32zM800 128.032c53.024 0 96-43.008 96-96s-42.976-96-96-96-96 43.008-96 96 42.976 96 96 96zM800 0.032c17.696 0 32 14.304 32 32s-14.304 32-32 32-32-14.304-32-32 14.304-32 32-32z" />
<glyph unicode="&#xe630;" d="M859.404 438.962h-694.833c-40.155 0-72.826 31.646-72.826 70.534v129.536c0 38.888 32.67 70.534 72.826 70.534h694.808c40.18 0 72.85-31.646 72.85-70.534v-129.536c0.024-38.888-32.67-70.534-72.826-70.534zM164.571 660.804c-13.263 0-24.064-9.752-24.064-21.772v-129.536c0-11.995 10.801-21.772 24.064-21.772h694.808c13.288 0 24.088 9.752 24.088 21.772v129.536c0 11.995-10.801 21.772-24.088 21.772h-694.808zM815.592 12.174h-607.208c-43.642 0-79.116 35.474-79.116 79.092v372.078h48.762v-372.078c0-16.725 13.629-30.33 30.354-30.33h607.208c16.75 0 30.354 13.629 30.354 30.33v372.078h48.762v-372.078c0-43.618-35.474-79.092-79.116-79.092zM617.155 463.343h48.762v-417.524h-48.762v417.524zM358.059 463.343h48.762v-417.524h-48.762v417.524zM475.941 682.455c-9.192 41.131-69.632 105.935-122.027 130.828-10.533 4.974-20.114 4.437-31.037-1.707-14.897-8.46-29.574-26.161-40.229-48.616-11.435-24.015-15.75-48.518-11.557-65.512l-47.348-11.678c-6.875 27.965-1.463 63.732 14.872 98.085 15.043 31.744 36.45 56.661 60.245 70.12 24.698 13.97 50.932 15.165 75.922 3.365 66.804-31.768 136.29-108.495 148.748-164.279l-47.592-10.606zM548.035 682.577l-47.567 10.752c12.605 55.71 82.091 132.34 148.699 163.986 25.307 12.020 50.859 10.947 75.995-3.316 23.747-13.434 45.154-38.327 60.221-70.144 16.335-34.28 21.772-70.046 14.872-98.060l-47.348 11.678c4.194 17.018-0.122 41.496-11.557 65.487-10.679 22.504-25.332 40.204-40.204 48.64-11.069 6.242-20.334 6.802-31.037 1.682-52.322-24.844-112.786-89.576-122.075-130.706z" />
<glyph unicode="&#xe631;" d="M853.431 268.32h-519.266c-10.435 0-19.334 7.534-21.041 17.798l-86.43 521.24h-116.98c-11.776 0-21.333 9.533-21.333 21.333 0 11.752 9.557 21.333 21.333 21.333h135.070c10.435 0 19.334-7.582 21.041-17.847l25.381-153.137h623.080c6.266 0 12.215-2.755 16.262-7.534s5.803-11.093 4.779-17.286l-60.855-368.055c-1.682-10.338-10.581-17.847-21.041-17.847zM352.256 310.987h483.060l53.809 325.388h-590.824l53.955-325.388zM431.982 27.753c-52.102 0-94.501 42.374-94.501 94.476s42.398 94.476 94.501 94.476 94.452-42.374 94.452-94.476-42.374-94.476-94.452-94.476zM431.982 174.039c-28.574 0-51.834-23.235-51.834-51.81s23.259-51.81 51.834-51.81 51.785 23.235 51.785 51.81-23.211 51.81-51.785 51.81zM755.59 27.802c-52.102 0-94.476 42.374-94.476 94.427 0 52.102 42.374 94.476 94.476 94.476s94.476-42.374 94.476-94.476c0-52.053-42.374-94.427-94.476-94.427zM755.59 174.039c-28.574 0-51.81-23.235-51.81-51.81 0-28.526 23.235-51.761 51.81-51.761s51.81 23.235 51.81 51.761c0 28.574-23.235 51.81-51.81 51.81z" />
<glyph unicode="&#xe632;" d="M512 12.222c-235.252 0-426.667 191.415-426.667 426.667s191.415 426.667 426.667 426.667 426.667-191.415 426.667-426.667-191.415-426.667-426.667-426.667zM512 816.794c-208.384 0-377.905-169.521-377.905-377.905s169.521-377.905 377.905-377.905 377.905 169.521 377.905 377.905-169.521 377.905-377.905 377.905zM512 414.508c-88.771 0-160.987 72.216-160.987 160.987s72.216 160.963 160.987 160.963 160.987-72.216 160.987-160.987-72.216-160.963-160.987-160.963zM512 687.697c-61.879 0-112.226-50.322-112.226-112.226s50.347-112.201 112.226-112.201 112.226 50.322 112.226 112.226-50.347 112.201-112.226 112.201zM820.492 144.367h-48.762c0 116.834-130.487 169.131-259.755 169.131s-259.73-52.297-259.73-169.131h-48.762c0 130.316 123.977 217.893 308.492 217.893 184.539-0.024 308.517-87.576 308.517-217.893z" />
<glyph unicode="&#xe633;" d="M877.714 438.889c0-201.947-163.767-365.714-365.714-365.714-201.996 0-365.714 163.767-365.714 365.714 0 201.996 163.718 365.714 365.714 365.714 201.947 0 365.714-163.718 365.714-365.714zM533.699 426.845c67.535 14.458 102.083 54.613 103.692 120.564-6.461 70.705-49.859 108.495-130.194 113.298-72.363-6.461-112.542-37.79-120.564-94.013 0-17.725 8.802-27.355 26.526-28.965 9.655 0 17.652 7.241 24.088 21.723 11.24 33.768 34.548 50.615 69.949 50.615 44.983-3.243 69.096-25.746 72.314-67.535 0-36.986-19.285-59.465-57.856-67.511-19.285-4.827-31.33-9.655-36.157-14.482-3.243-3.243-4.827-12.069-4.827-26.502v-69.949c0-19.285 8.826-28.94 26.551-28.94 17.652 0 26.502 9.655 26.502 28.94v62.757zM475.843 245.987c1.56-19.285 12.044-28.94 31.354-28.94 19.285 0 29.72 9.655 31.33 28.94-1.609 19.285-12.044 29.72-31.33 31.354-19.31-1.634-29.794-12.069-31.354-31.354z" />
<glyph unicode="&#xe634;" d="M247.052 118.718c0-13.434-10.947-24.381-24.405-24.381h-112.957c-13.434 0-24.357 10.947-24.357 24.381v400.384c0 13.483 10.923 24.357 24.357 24.357h112.957c13.458 0 24.405-10.874 24.405-24.357v-400.384zM592.847 118.718c0-13.434-10.923-24.381-24.357-24.381h-113.006c-13.434 0-24.357 10.947-24.357 24.381v640.366c0 13.434 10.923 24.357 24.357 24.357h113.006c13.434 0 24.357-10.923 24.357-24.357v-640.366zM938.667 118.718c0-13.434-10.923-24.381-24.357-24.381h-112.957c-13.458 0-24.405 10.947-24.405 24.381v514.633c0 13.434 10.947 24.357 24.405 24.357h112.957c13.434 0 24.357-10.923 24.357-24.357v-514.633z" />
<glyph unicode="&#xe635;" d="M284.818 97.995c-7.363 0-14.507 2.853-19.846 8.241-7.095 7.046-9.85 17.432-7.266 27.063l44.715 166.839c1.999 7.534 6.827 13.434 13.019 17.042 1.195 2.048 2.658 3.998 4.462 5.754l438.906 438.882c23.942 23.942 62.952 23.942 86.869 0l74.947-75.069c11.605-11.459 18.042-26.917 18.042-43.276 0.049-16.53-6.412-31.988-18.091-43.593l-449.097-448.975c-3.462-3.462-7.753-5.9-12.483-7.192l-166.936-44.788c-2.341-0.658-4.852-0.926-7.241-0.926zM597.699 678.529h-470.577c-15.506 0-28.062 12.556-28.062 28.062s12.581 28.062 28.062 28.062h470.577c15.531 0 28.062-12.556 28.062-28.062s-12.556-28.062-28.062-28.062zM362.398 410.827h-235.276c-15.506 0-28.062 12.556-28.062 28.062s12.581 28.062 28.062 28.062h235.276c15.531 0 28.062-12.556 28.062-28.062s-12.532-28.062-28.062-28.062zM202.606 143.099h-89.186c-15.531 0-28.087 12.556-28.087 28.062s12.581 28.062 28.087 28.062h89.186c15.506 0 28.062-12.556 28.062-28.062s-12.581-28.062-28.062-28.062zM841.265 143.099h-164.962c-15.531 0-28.062 12.556-28.062 28.062s12.556 28.062 28.062 28.062h164.962c15.506 0 28.062-12.556 28.062-28.062s-12.556-28.062-28.062-28.062z" />
<glyph unicode="&#xe636;" d="M529.66 336.636l61.913 61.897c26.703-10.476 55.060-15.722 83.338-15.738 58.305 0.016 116.563 22.244 161.099 66.718 89.041 89.041 89.041 233.44 0 322.465-44.568 44.552-102.904 66.844-161.256 66.796-58.352 0-116.689-22.244-161.256-66.765-66.072-66.072-83.007-162.69-50.948-244.515l-314.62-314.573c-35.619-35.619-35.619-93.342 0-128.992 17.818-17.802 41.165-26.734 64.544-26.703 23.3 0.032 46.616 8.901 64.512 26.734l18.873 18.873zM742.573 506.825c-9.405 0.016-18.81 3.608-25.994 10.807l-134.932 134.916c-14.368 14.32-14.368 37.636 0 51.988 14.336 14.336 37.589 14.352 51.972 0l134.963-134.916c14.336-14.352 14.336-37.636-0.016-51.988-7.2-7.2-16.573-10.807-25.994-10.807zM529.408 336.872c-6.034-6.049-9.515-14.431-9.515-23.001v-65.694c0-13.060-10.587-23.631-23.631-23.631h-56.052c-8.68 0-16.857-3.387-23.001-9.531-6.144-6.128-9.515-14.304-9.515-22.985v-56.068c0-13.044-10.587-23.615-23.631-23.615h-65.694c-8.696-0.016-16.872-3.387-23.001-9.515z" />
<glyph unicode="&#xe637;" d="M512 315.022c-86.284 0-156.499 70.215-156.499 156.499v273.503c0 86.284 70.215 156.499 156.499 156.499s156.499-70.215 156.499-156.499v-273.503c0-86.284-70.215-156.499-156.499-156.499zM488.369 173.915v-132.159h-159.193c-13.044 0-23.631-10.587-23.631-23.631s10.587-23.631 23.631-23.631h365.647c13.044 0 23.631 10.587 23.631 23.631s-10.587 23.631-23.631 23.631h-159.193v132.128c145.203 12.067 259.655 134.065 259.655 282.309v86.394c0 13.044-10.587 23.631-23.631 23.631s-23.631-10.587-23.631-23.631v-86.394c0-130.158-105.882-236.024-236.024-236.024s-236.024 105.866-236.024 236.024v86.394c0 13.044-10.587 23.631-23.631 23.631s-23.631-10.587-23.631-23.631v-86.394c0-148.244 114.452-270.241 259.623-282.309z" />
<glyph unicode="&#xe638;" d="M874.795 66.678c0-33.351-27.711-60.369-61.865-60.369h-601.86c-34.154 0-61.881 27.018-61.881 60.369v434.948c0 33.288 27.727 60.337 61.881 60.337h601.86c34.154 0 61.865-27.049 61.865-60.337v-434.948zM468.315 174.214c23.316 23.379 64.055 23.347 87.418 0 10.76-10.807 28.199-10.807 38.991-0.032 10.791 10.744 10.791 28.215 0.032 38.991-22.087 22.118-51.484 34.312-82.723 34.312-0.016 0-0.016 0-0.016 0-31.256 0-60.637-12.178-82.708-34.312-10.76-10.776-10.744-28.247 0.032-38.991 5.388-5.388 12.43-8.066 19.472-8.066 7.058 0 14.115 2.678 19.503 8.097zM652.572 258.639c10.776 10.744 10.776 28.215 0 38.991-37.541 37.541-87.45 58.21-140.556 58.242h-0.016c-53.106 0-103.030-20.701-140.572-58.242-10.776-10.776-10.776-28.247 0-38.991 10.776-10.776 28.215-10.776 38.991 0 27.144 27.144 63.22 42.094 101.597 42.094s74.437-14.95 101.565-42.094c5.388-5.388 12.43-8.097 19.488-8.097 7.058 0.016 14.115 2.725 19.503 8.097zM349.909 345.789c43.292 43.292 100.856 67.174 162.076 67.174 0.016 0 0.032 0 0.032 0 61.235-0.032 118.8-23.883 162.107-67.174 10.776-10.776 28.215-10.776 38.991 0s10.776 28.215 0 38.991c-53.721 53.721-125.117 83.291-201.082 83.322-0.016 0-0.032 0-0.047 0-75.949 0-147.361-29.601-201.066-83.322-10.776-10.776-10.776-28.247 0-38.991 5.388-5.388 12.43-8.097 19.488-8.097s14.131 2.71 19.503 8.097zM512.016 146.96c-15.202 0-27.569-12.335-27.569-27.569 0-15.202 12.367-27.538 27.569-27.538 15.187 0 27.569 12.335 27.569 27.538 0 15.218-12.383 27.569-27.569 27.569zM274.605 715.815l-70.183 65.268c-9.531 8.885-24.481 8.334-33.398-1.197-8.869-9.563-8.334-24.529 1.213-33.414l109.915-102.211c4.537-4.222 10.303-6.333 16.085-6.333s11.548 2.127 16.085 6.333l109.946 102.211c9.547 8.885 10.114 23.851 1.213 33.414-8.885 9.531-23.836 10.098-33.398 1.197l-70.231-65.3v150.276c0 13.044-10.587 23.631-23.631 23.631s-23.631-10.587-23.631-23.631v-150.244zM758.863 811.788l70.183-65.268c9.531-8.885 24.481-8.334 33.398 1.197 8.869 9.563 8.334 24.529-1.213 33.414l-109.915 102.211c-4.537 4.222-10.303 6.333-16.085 6.333s-11.548-2.127-16.085-6.333l-109.946-102.211c-9.547-8.885-10.114-23.851-1.213-33.414 8.885-9.531 23.836-10.098 33.398-1.197l70.231 65.3v-150.276c0-13.044 10.587-23.631 23.631-23.631s23.631 10.587 23.631 23.631v150.244z" />
<glyph unicode="&#xe639;" d="M472.615 190.866h-317.235c-40.424 0-73.224 32.043-73.224 71.554v537.6c0 39.495 32.8 71.522 73.224 71.522h713.192c40.456 0 73.255-32.028 73.255-71.522v-537.6c0-39.511-32.8-71.554-73.255-71.554h-395.957zM416.154 396.28v127.023c0 17.392-14.1 31.508-31.508 31.508-17.392 0-31.508-14.115-31.508-31.508v-127.023c0-17.392 14.115-31.508 31.508-31.508 17.408 0 31.508 14.1 31.508 31.508zM535.946 396.28v211.669c0 17.392-14.1 31.508-31.508 31.508-17.392 0-31.508-14.115-31.508-31.508v-211.684c0-17.392 14.115-31.508 31.508-31.508 17.408 0.016 31.508 14.115 31.508 31.523zM655.754 396.28v319.141c0 17.392-14.1 31.508-31.508 31.508-17.392 0-31.508-14.115-31.508-31.508v-319.141c0-17.392 14.115-31.508 31.508-31.508 17.408 0 31.508 14.1 31.508 31.508zM551.385 190.866v-103.392h175.577c17.392 0 31.508-14.115 31.508-31.508s-14.115-31.508-31.508-31.508h-429.891c-17.392 0-31.508 14.115-31.508 31.508s14.115 31.508 31.508 31.508h175.545v103.392z" />
<glyph unicode="&#xe63a;" d="M702.354 194.221c-2.694-45.686-36.454-81.904-77.603-81.904h-242.231c-42.882 0-77.777 39.385-77.777 87.812v99.454h-0.063l-62.574 16.589-137.437-65.347c-3.23-1.56-6.68-2.3-10.145-2.3-4.395 0-8.791 1.229-12.619 3.623-6.853 4.348-11.012 11.878-11.012 20.007v336.423c0 7.782 3.844 15.076 10.287 19.503 6.428 4.395 14.635 5.356 21.898 2.521l137.673-53.5 681.905 205.603c7.105 2.127 14.887 0.803 20.905-3.655 6.002-4.458 9.531-11.485 9.531-18.952v-601.576c0-7.326-3.403-14.241-9.216-18.716-4.191-3.23-9.263-4.931-14.415-4.931-2.016 0-4.064 0.284-6.049 0.803l-571.408 151.363v-86.93c0-21.992 13.974-40.55 30.515-40.55h242.231c16.542 0 30.531 18.558 30.531 40.55v6.585z" />
<glyph unicode="&#xe63b;" d="M168.44 16.864h-0.063c-23.001 0-44.631 8.948-60.889 25.238-16.274 16.274-25.253 37.904-25.269 60.92 0 23.016 8.964 44.646 25.269 60.952l340.236 340.252c2.269 2.253 2.883 5.687 1.56 8.554-45.214 97.973-24.497 214.867 51.547 290.926 48.664 48.648 113.349 75.445 182.177 75.445 20.102 0 40.298-2.395 59.991-7.073 8.318-2.001 14.935-8.302 17.266-16.557s0.032-17.109-6.034-23.142l-107.819-107.819c-1.812-1.843-2.599-4.458-2.095-6.979l22.103-110.56c0.599-2.977 2.977-5.388 5.939-5.971l110.624-22.15c3.545-0.221 5.467 0.677 6.932 2.158l106.008 106.023c6.097 6.128 15.045 8.428 23.331 5.971 8.287-2.426 14.604-9.169 16.447-17.597 18.826-85.843-7.231-174.395-69.727-236.922-48.648-48.648-113.365-75.445-182.209-75.445-36.297 0-71.475 7.42-104.59 22.024-2.804 1.197-6.254 0.583-8.46-1.638l-341.339-341.386c-16.274-16.274-37.92-25.222-60.936-25.222z" />
<glyph unicode="&#xe63c;" d="M340.315 269.414c0-44.095-35.698-79.809-79.762-79.809s-79.777 35.73-79.777 79.809c0 44.032 35.714 79.762 79.777 79.762s79.762-35.73 79.762-79.762zM831.835 269.414c0-44.095-35.745-79.809-79.793-79.809s-79.777 35.73-79.777 79.809c0 44.032 35.73 79.762 79.777 79.762s79.793-35.73 79.793-79.762zM982.662 273.967c-0.016 0-0.032 0-0.032 0l-81.006 0.126c-12.729 0-23.095 10.098-23.584 22.67-12.776 59.234-65.615 102.006-126.472 102.006-59.108 0-112.152-44.095-126.11-104.795-2.458-10.744-12.020-18.337-23.032-18.337h-191.803c-11.28 0-20.984 7.971-23.19 19.046-11.926 60.306-65.315 104.086-126.913 104.086-60.684 0-112.53-41.228-126.094-100.242-2.048-8.917-9.074-15.848-18.038-17.786-2.867-0.646-5.766-0.709-8.57-0.284l-63.803 0.189c-11.154 0.032-20.764 7.845-23.064 18.763-0.536 2.71-54.036 272.778 202.453 370.011 11.169 5.656 77.572 36.99 179.389 36.99 61.030 0 123.085-11.264 184.415-33.508 4.395-1.875 75.492-33.146 129.119-72.546 8.665-6.365 18.148-13.501 28.136-21.047 43.213-32.516 108.512-81.699 136.806-86.095 60.763-9.452 139.831-40.22 124.928-197.853-1.15-12.13-11.359-21.394-23.536-21.394z" />
<glyph unicode="&#xe63d;" d="M389.199-5.474c-6.191 0-12.209 2.426-16.715 6.916l-307.042 307.042c-6.223 6.191-8.46 15.313-5.876 23.678 46.364 150.071 168.708 221.105 287.051 289.808 115.57 67.080 224.744 130.442 265.626 262.884 2.426 7.924 8.869 13.974 16.888 15.974 8.066 1.969 16.526-0.362 22.402-6.239l307.011-307.042c6.223-6.207 8.46-15.313 5.876-23.678-46.332-150.087-168.661-221.121-287.004-289.792-115.57-67.096-224.744-130.458-265.626-262.9-2.458-7.924-8.869-13.974-16.888-15.974-1.922-0.457-3.828-0.677-5.703-0.677zM603.388 471.19c-8.302 6.947-16.62 11.642-24.986 13.974-8.334 2.3-16.683 3.277-25.112 2.71-8.302-0.662-16.825-2.584-25.348-5.813-8.523-3.34-17.14-6.963-25.758-11.106-13.627 15.659-27.286 31.145-40.897 45.544 6.16 5.514 12.099 8.334 17.818 8.57 5.75 0.236 11.327-0.378 16.62-1.701 5.325-1.355 10.24-2.473 14.746-3.387 4.553-0.898 8.491 0.11 12.036 3.009 3.655 3.167 5.656 7.31 5.971 12.272 0.284 4.978-1.638 9.846-5.813 14.604-5.356 6.176-11.784 9.862-19.503 11.311-7.625 1.292-15.47 1.197-23.631-0.599-8.003-1.796-15.659-4.852-22.89-9.106s-13.044-8.617-17.361-12.902c-1.654 1.638-3.293 3.135-4.947 4.71-1.812 1.654-4.128 2.536-6.869 2.473-2.773 0-5.010-1.166-6.9-3.371-1.875-2.127-2.678-4.616-2.332-7.215 0.221-2.757 1.292-4.805 3.198-6.396 1.654-1.418 3.261-2.788 4.947-4.206-6.491-7.845-11.878-16.542-16.037-25.647-4.269-9.184-6.837-18.259-7.751-27.081-1.008-8.869-0.063-17.030 2.647-24.544 2.71-7.578 7.751-14.037 15.108-20.118 11.973-9.941 26.025-14.115 42.346-13.17 16.274 0.977 33.808 5.829 52.649 15.927 14.95-17.298 29.995-34.469 44.977-50.507-6.333-5.325-11.847-8.381-16.746-9.374-4.947-1.024-9.295-0.945-13.296 0.252-3.938 1.245-7.625 2.993-10.949 5.293-3.387 2.332-6.743 4.301-10.035 5.955-3.261 1.654-6.68 2.521-10.098 2.584-3.482 0.063-7.168-1.607-11.232-5.088-4.191-3.608-6.239-7.83-6.239-12.603 0-4.742 2.158-9.515 6.428-14.352 4.301-4.884 9.941-8.932 16.715-12.178s14.462-5.246 22.859-5.797c8.428-0.583 17.298 0.693 26.671 4.143 9.421 3.434 18.731 9.673 27.9 18.889 4.458-4.38 8.885-8.428 13.359-12.43 1.843-1.623 4.159-2.442 6.916-2.221 2.71 0.126 4.978 1.339 6.837 3.56 1.906 2.3 2.678 4.836 2.395 7.483-0.252 2.631-1.323 4.679-3.198 6.16-4.427 3.608-8.917 7.373-13.359 11.327 7.562 9.342 13.659 19.172 18.18 28.861 4.49 9.783 7.2 19.172 8.066 27.916 0.961 8.759-0.126 16.699-2.977 23.867-2.851 7.231-7.893 13.501-15.124 19.519zM461.477 453.955c-7.2-0.315-13.47 2.095-18.889 7.404-2.363 2.221-4.001 4.931-4.978 8.176-1.071 3.23-1.386 6.743-1.008 10.618 0.362 3.844 1.481 7.798 3.482 11.8 1.875 4.049 4.679 8.050 8.239 11.941 12.855-12.808 25.695-26.876 38.55-41.37-9.704-5.404-18.196-8.239-25.395-8.57zM581.207 403.149c-2.253-4.206-4.899-8.003-7.971-11.28-14.178 14.383-28.436 30.153-42.646 46.379 3.623 1.638 7.452 3.293 11.563 5.041 4.128 1.717 8.239 2.899 12.335 3.592 4.222 0.63 8.365 0.378 12.524-0.567 4.128-1.040 8.066-3.245 11.658-6.774 3.608-3.608 5.876-7.294 6.743-11.311 0.992-4.080 1.040-8.192 0.362-12.383-0.725-4.222-2.269-8.444-4.569-12.698zM562.365 601.789c3.513 2.804 85.906 69.049 118.485 125.117 5.451 9.405 2.253 21.457-7.136 26.923-9.421 5.467-21.472 2.284-26.923-7.136-28.861-49.688-108.213-113.506-109.017-114.137-8.491-6.806-9.878-19.204-3.072-27.695 3.875-4.868 9.594-7.389 15.392-7.389 4.301 0 8.649 1.418 12.272 4.317zM349.909 144.597c28.861 49.688 108.213 113.506 109.017 114.137 8.46 6.806 9.846 19.204 3.040 27.695-6.774 8.491-19.141 9.846-27.664 3.072-3.482-2.804-85.906-69.049-118.469-125.117-5.482-9.405-2.284-21.457 7.136-26.923 3.104-1.796 6.522-2.662 9.878-2.662 6.79 0 13.407 3.513 17.061 9.799z" />
<glyph unicode="&#xe63e;" d="M517.23 21.335h-320.105c-27.576 0-50.055 22.431-50.055 50.055v487.436c0 27.673 22.48 50.153 50.055 50.153h320.105c27.576 0 50.055-22.48 50.055-50.153v-487.436c0-27.624-22.48-50.055-50.055-50.055zM197.125 560.216l-1.292-488.825 321.397-1.292c0.658 0 1.292 0.561 1.292 1.292v487.436l-321.397 1.39zM831.191 21.335h-300.38c-19.335 0-25.137 13.532-26.478 17.677-3.804 11.752 0.707 22.333 13.385 31.379 0.244 0.244 0.512 0.39 0.805 0.561v331.345c0 23.284 20.529 42.229 45.764 42.229h266.905c25.235 0 45.764-18.944 45.764-42.229v-338.733c0-23.284-20.529-42.229-45.764-42.229zM567.285 70.098h260.907v325.615l-260.907 0.049v-325.664zM481.413 567.726c-13.434 0-24.382 10.899-24.382 24.382v102.378h-199.758v-102.378c0-13.483-10.899-24.382-24.382-24.382s-24.382 10.899-24.382 24.382v105.231c0 25.332 20.627 45.91 45.959 45.91h205.39c25.332 0 45.959-20.578 45.959-45.91v-105.231c-0.024-13.483-10.923-24.382-24.406-24.382zM357.165 712.21c-13.483 0-24.382 10.899-24.382 24.382v113.715c0 13.483 10.899 24.382 24.382 24.382 13.434 0 24.382-10.899 24.382-24.382v-113.715c0-13.483-10.947-24.382-24.382-24.382zM654.327 34.916c-10.094 0-18.286 8.192-18.286 18.286v250.764c0 10.094 8.192 18.286 18.286 18.286s18.286-8.192 18.286-18.286v-250.764c0-10.094-8.192-18.286-18.286-18.286zM753.194 34.916c-10.094 0-18.286 8.192-18.286 18.286v250.764c0 10.094 8.192 18.286 18.286 18.286 10.143 0 18.286-8.192 18.286-18.286v-250.764c0-10.094-8.143-18.286-18.286-18.286zM322.373 449.963c0-2.536-2.097-4.584-4.608-4.584h-33.135c-2.56 0-4.608 2.048-4.608 4.584v33.183c0 2.536 2.048 4.584 4.608 4.584h33.135c2.536 0 4.608-2.048 4.608-4.584v-33.183zM434.308 449.963c0-2.536-2.048-4.584-4.608-4.584h-33.135c-2.536 0-4.584 2.048-4.584 4.584v33.183c0 2.536 2.048 4.584 4.584 4.584h33.135c2.56 0 4.608-2.048 4.608-4.584v-33.183zM322.373 319.717c0-2.56-2.097-4.584-4.608-4.584h-33.135c-2.56 0-4.608 1.999-4.608 4.584v33.135c0 2.56 2.048 4.584 4.608 4.584h33.135c2.536 0 4.608-1.999 4.608-4.584v-33.135zM434.308 319.717c0-2.56-2.048-4.584-4.608-4.584h-33.135c-2.536 0-4.584 1.999-4.584 4.584v33.135c0 2.56 2.048 4.584 4.584 4.584h33.135c2.56 0 4.608-1.999 4.608-4.584v-33.135zM322.373 189.47c0-2.56-2.097-4.608-4.608-4.608h-33.135c-2.56 0-4.608 2.048-4.608 4.608v33.135c0 2.536 2.048 4.584 4.608 4.584h33.135c2.536 0 4.608-2.048 4.608-4.584v-33.135zM434.308 189.47c0-2.56-2.048-4.608-4.608-4.608h-33.135c-2.536 0-4.584 2.048-4.584 4.608v33.135c0 2.536 2.048 4.584 4.584 4.584h33.135c2.56 0 4.608-2.048 4.608-4.584v-33.135z" />
<glyph unicode="&#xe63f;" d="M758.54 21.333h-493.080c-61.854 0-112.25 50.371-112.25 112.274v586.679c0 61.903 50.395 112.274 112.25 112.274h27.38c12.8 0 12.605-10.386 12.605-23.138 0-12.8 0.219-23.162-12.605-23.162h-27.38c-36.352 0-65.95-29.598-65.95-65.975v-586.679c0-36.376 29.598-65.975 65.95-65.975h493.105c36.352 0 65.95 29.598 65.95 65.975v586.679c0 36.376-29.598 65.975-65.95 65.975h-22.991c-12.8 0 1.243 10.362 1.243 23.162 0 12.751-14.043 23.138-1.243 23.138h22.967c61.879 0 112.25-50.371 112.25-112.274v-586.679c0.024-61.903-50.371-112.274-112.25-112.274zM682.13 689.42h-340.285c-43.179 0-78.287 35.109-78.287 78.287v28.721c0 43.154 35.084 78.238 78.287 78.238h340.261c43.179 0 78.287-35.084 78.287-78.238v-28.721c0-43.154-35.084-78.287-78.263-78.287zM341.845 828.392c-17.652 0-32.012-14.36-32.012-31.963v-28.721c0-17.627 14.36-31.988 32.012-31.988h340.261c17.652 0 32.012 14.36 32.012 31.988v28.721c0 17.603-14.36 31.963-32.012 31.963h-340.261zM632.076 124.197c-5.925 0-11.825 2.243-16.36 6.754l-72.485 72.485c-9.045 9.045-9.045 23.723 0 32.768 9.021 9.021 23.698 9.021 32.744 0l56.101-56.125 107.106 107.081c9.045 9.045 23.698 9.045 32.744 0 9.021-9.045 9.021-23.674 0-32.719l-123.441-123.465c-4.559-4.535-10.484-6.778-16.408-6.778zM735.695 529.408h-448.975c-12.776 0-23.138 10.362-23.138 23.162 0 12.751 10.362 23.138 23.138 23.138h448.975c12.776 0 23.138-10.386 23.138-23.138 0-12.8-10.362-23.162-23.138-23.162zM735.695 357.669h-448.975c-12.776 0-23.138 10.338-23.138 23.138s10.362 23.138 23.138 23.138h448.975c12.776 0 23.138-10.338 23.138-23.138s-10.362-23.138-23.138-23.138zM468.358 185.905h-175.518c-12.776 0-23.138 10.386-23.138 23.162s10.362 23.138 23.138 23.138h175.518c12.776 0 23.138-10.362 23.138-23.138s-10.362-23.162-23.138-23.162z" />
<glyph unicode="&#xe640;" d="M816.586 128.297h-609.148c-67.342 0-122.103 52.201-122.103 116.3v406.806c0 64.099 54.761 116.3 122.103 116.3h609.148c67.293 0 122.103-52.201 122.103-116.3v-406.83c0-64.099-54.81-116.276-122.103-116.276zM207.438 718.915c-40.473 0-73.34-30.282-73.34-67.537v-406.83c0-37.231 32.866-67.537 73.34-67.537h609.148c40.425 0 73.34 30.282 73.34 67.537v406.855c0 37.231-32.915 67.537-73.34 67.537h-609.148zM338.147 317.62c-9.704 0-18.53 5.754-22.382 14.678l-87.53 201.148c-5.388 12.337 0.293 26.722 12.63 32.037 12.337 5.388 26.722-0.244 32.086-12.581l65.196-149.825 65.147 149.825c5.388 12.337 19.773 17.945 32.086 12.581 12.337-5.34 17.994-19.725 12.63-32.037l-87.53-201.148c-3.852-8.899-12.654-14.678-22.333-14.678zM512.354 317.62c-13.483 0-24.382 10.899-24.382 24.382v201.148c0 13.483 10.899 24.382 24.382 24.382 13.434 0 24.382-10.899 24.382-24.382v-201.148c0-13.459-10.972-24.382-24.382-24.382zM625.435 317.62c-13.483 0-24.382 10.899-24.382 24.382v201.148c0 13.483 10.899 24.382 24.382 24.382 13.434 0 24.382-10.899 24.382-24.382v-201.148c0-13.459-10.947-24.382-24.382-24.382zM694.874 387.448h-69.439c-13.483 0-24.382 10.899-24.382 24.382s10.899 24.382 24.382 24.382h69.439c29.331 0 54.151 18.896 54.151 41.278s-24.82 41.278-54.151 41.278h-69.439c-13.483 0-24.382 10.899-24.382 24.382s10.899 24.382 24.382 24.382h69.439c56.711 0 102.914-40.376 102.914-90.041s-46.203-90.041-102.914-90.041z" />
<glyph unicode="&#xe641;" d="M816.567 128.341h-609.134c-67.316 0-122.1 54.613-122.1 121.758v63.805c0 13.483 10.923 24.381 24.381 24.381 60.514 0 109.714 49.25 109.714 109.714 0 59.563-47.714 108.227-106.935 109.714-14.117-1.755-27.136 9.801-27.16 24.186v64.049c0 67.145 54.784 121.71 122.1 121.71h609.134c67.34 0 122.1-54.565 122.1-121.71v-64.049c0-14.385-12.995-25.941-27.136-24.186-59.221-1.487-106.959-50.152-106.959-109.714 0-60.465 49.25-109.714 109.714-109.714 13.483 0 24.381-10.898 24.381-24.381v-63.805c0-67.145-54.76-121.758-122.1-121.758zM134.095 291.426v-41.326c0-40.277 32.914-72.997 73.338-72.997h609.134c40.448 0 73.338 32.719 73.338 72.997v41.326c-75.849 11.776-134.095 77.483-134.095 156.574s58.246 144.847 134.095 156.623v41.326c0 40.229-32.89 72.948-73.338 72.948h-609.134c-40.424 0-73.338-32.695-73.338-72.948v-41.326c75.849-11.776 134.095-77.531 134.095-156.623s-58.246-144.798-134.095-156.574zM517.315 450.097c-8.436 0-16.628 4.389-21.138 12.19l-65.365 113.225c-6.705 11.678-2.706 26.575 8.923 33.28 11.678 6.754 26.575 2.706 33.304-8.899l65.365-113.25c6.729-11.678 2.731-26.575-8.923-33.28-3.852-2.219-8.046-3.267-12.166-3.267zM518.242 450.097c-4.145 0-8.338 1.048-12.166 3.291-11.678 6.705-15.653 21.626-8.923 33.28l65.39 113.25c6.705 11.678 21.626 15.677 33.28 8.899 11.678-6.705 15.677-21.626 8.948-33.28l-65.39-113.25c-4.51-7.802-12.702-12.19-21.138-12.19zM600.893 450.243h-167.302c-13.483 0-24.381 10.898-24.381 24.381s10.898 24.381 24.381 24.381h167.302c13.458 0 24.381-10.898 24.381-24.381s-10.947-24.381-24.381-24.381zM600.893 360.18h-167.302c-13.483 0-24.381 10.898-24.381 24.381s10.898 24.381 24.381 24.381h167.302c13.458 0 24.381-10.898 24.381-24.381s-10.947-24.381-24.381-24.381zM518.485 283.941c-13.483 0-24.381 10.898-24.381 24.381v167.326c0 13.483 10.898 24.381 24.381 24.381s24.381-10.898 24.381-24.381v-167.326c0-13.458-10.923-24.381-24.381-24.381z" />
<glyph unicode="&#xe642;" d="M816.567 45.275h-609.109c-67.34 0-122.124 52.2-122.124 116.322v572.782c0 64.146 54.784 116.322 122.124 116.322h609.109c67.316 0 122.1-52.2 122.1-116.322v-572.757c0-64.146-54.784-116.346-122.1-116.346zM207.458 801.963c-40.448 0-73.362-30.354-73.362-67.584v-572.757c0-37.254 32.914-67.56 73.362-67.56h609.109c40.424 0 73.338 30.306 73.338 67.56v572.757c0 37.23-32.914 67.56-73.338 67.56h-609.109zM914.286 606.037h-804.571c-13.458 0-24.381 10.898-24.381 24.381s10.923 24.381 24.381 24.381h804.571c13.458 0 24.381-10.898 24.381-24.381s-10.923-24.381-24.381-24.381zM478.11 472.381h-231.619c-13.458 0-24.381 10.898-24.381 24.381s10.923 24.381 24.381 24.381h231.619c13.483 0 24.381-10.898 24.381-24.381s-10.898-24.381-24.381-24.381zM362.301 374.857h-115.81c-13.458 0-24.381 10.898-24.381 24.381s10.923 24.381 24.381 24.381h115.81c13.483 0 24.381-10.898 24.381-24.381s-10.898-24.381-24.381-24.381zM774.242 154.99h-170.667c-13.458 0-24.381 10.898-24.381 24.381v170.667c0 13.483 10.923 24.381 24.381 24.381h170.667c13.458 0 24.381-10.898 24.381-24.381v-170.667c0-13.458-10.923-24.381-24.381-24.381zM627.956 203.752h121.905v121.905h-121.905v-121.905z" />
<glyph unicode="&#xe643;" d="M812.105 44.544h-605.306c-66.999 0-121.466 51.931-121.466 115.712v569.271c0 63.756 54.467 115.639 121.466 115.639h369.566c13.483 0 24.381-10.874 24.381-24.381 0-13.483-10.898-24.381-24.381-24.381h-369.566c-40.107 0-72.704-29.989-72.704-66.877v-569.271c0-36.913 32.597-66.95 72.704-66.95h605.282c40.107 0 72.704 30.037 72.704 66.95v324.681c0 13.483 10.898 24.381 24.381 24.381 13.507 0 24.381-10.898 24.381-24.381v-324.657c0.024-63.805-54.443-115.736-121.442-115.736zM370.712 259.267c-6.388 0-12.605 2.511-17.237 7.144-6.168 6.168-8.582 15.165-6.315 23.528l38.839 144.896c1.755 6.558 5.925 11.678 11.337 14.799 1.048 1.755 2.341 3.486 3.852 4.998l381.245 381.196c20.797 20.821 54.662 20.821 75.435 0l65.097-65.195c10.069-9.923 15.701-23.357 15.701-37.595 0-14.336-5.583-27.794-15.75-37.864l-390.071-389.925c-2.999-3.023-6.705-5.144-10.825-6.242l-144.969-38.912c-2.048-0.561-4.242-0.829-6.339-0.829zM431.689 416.914l-26.502-98.767 97.987 26.283 4.267 4.218 381.050 381.074c1.146 1.097 1.414 2.389 1.414 3.218 0 0.853-0.244 2.097-1.341 3.17l-65.195 65.268c-1.755 1.78-4.706 1.731-6.485-0.024l-381.221-381.196c-1.243-1.195-2.56-2.267-3.974-3.243z" />
<glyph unicode="&#xe644;" d="M531.407-42.082c-268.849 0-487.595 218.746-487.595 487.595 0 268.873 218.746 487.643 487.595 487.643s487.619-218.77 487.619-487.643c0-268.849-218.77-487.595-487.619-487.595zM531.407 884.395c-241.981 0-438.833-196.852-438.833-438.882 0-241.981 196.852-438.833 438.833-438.833 242.005 0 438.857 196.852 438.857 438.833 0 242.030-196.852 438.882-438.857 438.882zM478.159 268.507c-6.242 0-12.483 2.365-17.262 7.144l-164.962 164.888c-9.509 9.533-9.509 24.942 0 34.475 9.533 9.509 24.942 9.509 34.475 0l147.749-147.651 288.158 288.134c9.533 9.533 24.942 9.533 34.475 0 9.533-9.557 9.533-24.942 0-34.475l-305.396-305.371c-4.754-4.803-10.996-7.144-17.237-7.144z" />
<glyph unicode="&#xe645;" d="M512 336.628c-61.416 0-111.372 49.981-111.372 111.372s49.981 111.372 111.372 111.372c61.391 0 111.323-49.981 111.323-111.372s-49.932-111.372-111.323-111.372zM512 510.61c-34.523 0-62.61-28.087-62.61-62.61s28.087-62.61 62.61-62.61 62.562 28.087 62.562 62.61-28.038 62.61-62.562 62.61zM548.962 828.514l16.677-83.334c3.803-18.846 17.286-34.328 35.474-40.667 10.045-3.535 19.773-7.582 29.208-12.19 7.534-3.56 15.604-5.437 23.698-5.437 10.63 0 21.114 3.096 30.184 9.094l70.754 47.202 52.297-52.297-47.202-70.754c-10.679-15.994-12.044-36.474-3.73-53.809 4.584-9.435 8.728-19.188 12.215-29.233 6.339-18.188 21.772-31.671 40.667-35.377l83.285-16.725 0.049-73.996-83.334-16.677c-18.895-3.755-34.328-17.237-40.667-35.377-3.486-10.094-7.582-19.822-12.142-29.233-8.436-17.335-6.997-37.864 3.657-53.858l47.202-70.802-52.297-52.297-70.754 47.25c-9.070 5.949-19.578 9.094-30.184 9.094-8.046 0-16.165-1.804-23.625-5.437-9.484-4.584-19.188-8.655-29.282-12.19-18.139-6.339-31.622-21.821-35.426-40.667l-16.725-83.334h-73.947l-16.677 83.334c-3.755 18.846-17.237 34.328-35.377 40.667-10.045 3.535-19.822 7.534-29.282 12.19-7.485 3.608-15.579 5.437-23.625 5.437-10.63 0-21.138-3.145-30.184-9.094l-70.802-47.25-52.297 52.297 47.202 70.802c10.679 15.994 12.093 36.474 3.706 53.809-4.584 9.435-8.704 19.139-12.19 29.184-6.339 18.237-21.821 31.72-40.667 35.426l-83.334 16.725v73.996l83.334 16.677c18.846 3.755 34.328 17.237 40.667 35.377 3.486 10.045 7.582 19.822 12.142 29.233 8.436 17.384 7.022 37.864-3.657 53.858l-47.202 70.754 52.297 52.297 70.802-47.202c9.045-5.998 19.578-9.094 30.184-9.094 8.046 0 16.091 1.853 23.625 5.437 9.387 4.584 19.188 8.655 29.233 12.19 18.188 6.339 31.671 21.821 35.426 40.667l16.677 83.285 73.947 0.049zM548.962 874.667c0 0 0 0-0.049 0l-73.899-0.049c-21.992 0-40.911-15.531-45.227-37.083l-16.677-83.285c-0.561-2.853-2.584-5.193-5.315-6.144-11.776-4.096-23.308-8.899-34.377-14.336-0.829-0.39-2.121-0.707-3.365-0.707-1.195 0-2.95 0.244-4.706 1.438l-70.68 47.104c-7.802 5.169-16.725 7.729-25.576 7.729-11.922 0-23.723-4.608-32.67-13.483l-52.273-52.322c-15.555-15.579-17.944-39.96-5.754-58.246l47.202-70.705c1.634-2.487 1.853-5.486 0.536-8.192-5.364-10.996-10.167-22.577-14.214-34.182-0.951-2.706-3.291-4.754-6.144-5.339l-83.334-16.677c-21.577-4.291-37.108-23.235-37.108-45.178v-73.996c0.049-21.943 15.531-40.911 37.083-45.202l83.334-16.725c2.877-0.61 5.193-2.609 6.144-5.339 3.95-11.337 8.704-22.869 14.287-34.231 1.195-2.536 1-5.656-0.61-8.094l-47.202-70.754c-12.19-18.286-9.777-42.667 5.754-58.197l52.297-52.322c8.948-8.923 20.748-13.483 32.67-13.483 8.85 0 17.774 2.536 25.551 7.704l70.778 47.25c1.292 0.805 2.95 1.341 4.608 1.341 1.195 0 2.438-0.293 3.486-0.805 10.752-5.242 22.284-10.045 34.133-14.19 2.828-1 4.852-3.34 5.437-6.193l16.677-83.383c4.34-21.528 23.259-37.059 45.227-37.059h73.947c21.967 0 40.911 15.482 45.227 37.059l16.725 83.334c0.561 2.853 2.609 5.242 5.339 6.193 11.435 3.95 22.626 8.631 34.182 14.19 1.146 0.561 2.389 0.853 3.56 0.853 1.658 0 3.34-0.512 4.779-1.487l70.607-47.104c7.802-5.169 16.75-7.704 25.6-7.704 11.898 0 23.723 4.584 32.622 13.483l52.297 52.322c15.531 15.531 17.944 39.912 5.754 58.197l-47.202 70.754c-1.609 2.438-1.829 5.534-0.561 8.094 5.437 11.142 10.191 22.674 14.238 34.231 0.951 2.755 3.34 4.754 6.144 5.388l83.334 16.677c21.577 4.291 37.083 23.235 37.083 45.227l-0.049 73.996c-0.049 21.894-15.531 40.814-37.059 45.154l-83.285 16.725c-2.95 0.61-5.242 2.56-6.168 5.291-4.023 11.532-8.826 23.040-14.36 34.377-1.146 2.438-0.951 5.583 0.658 7.997l47.202 70.705c12.19 18.286 9.752 42.667-5.754 58.246l-52.297 52.297c-8.875 8.899-20.699 13.507-32.597 13.507-8.85 0-17.774-2.56-25.576-7.753l-70.754-47.202c-1.658-1.097-3.438-1.341-4.608-1.341-1.292 0-2.56 0.341-3.852 0.902-10.581 5.242-22.114 10.045-33.841 14.092-2.828 1-4.876 3.389-5.461 6.193l-16.677 83.334c-4.34 21.577-23.235 37.108-45.227 37.108v0z" />
<glyph unicode="&#xe646;" d="M512 518.68c-164.084 0-330.216 46.299-330.216 134.802s166.132 134.827 330.216 134.827c164.108 0 330.24-46.299 330.24-134.802s-166.132-134.827-330.24-134.827zM512 739.547c-171.813 0-281.454-50.956-281.454-86.040s109.641-86.065 281.454-86.065c171.837 0 281.478 50.956 281.478 86.040s-109.641 86.065-281.478 86.065zM512 423.643c-144.14 0-251.416 35.084-302.031 98.84-29.989 37.766-39.522 84.968-27.55 136.558 3.048 13.117 16.165 21.309 29.257 18.213 13.117-3.048 21.26-16.14 18.213-29.257-8.606-37.083-2.462-69.096 18.261-95.159 40.57-51.102 136.728-80.408 263.826-80.408 132.413 0 223.451 26.112 263.314 75.508 21.48 26.648 27.599 59.465 18.725 100.425-2.853 13.166 5.51 26.136 18.676 28.989 13.166 2.926 26.136-5.51 28.989-18.676 12.020-55.491 2.462-103.083-28.428-141.385-50.103-62.147-151.454-93.647-301.251-93.647zM512 320.902c-144.14 0-251.416 35.084-302.031 98.816-29.989 37.79-39.522 84.992-27.55 136.582 3.048 13.117 16.165 21.309 29.257 18.213 13.117-3.023 21.26-16.14 18.213-29.257-8.606-37.083-2.462-69.096 18.261-95.183 40.57-51.078 136.728-80.384 263.826-80.384 132.437 0 223.476 26.088 263.29 75.508 21.504 26.624 27.624 59.465 18.749 100.425-2.853 13.166 5.51 26.136 18.676 28.989 13.166 2.95 26.136-5.51 28.989-18.676 12.020-55.491 2.462-103.083-28.428-141.385-50.103-62.147-151.454-93.647-301.251-93.647zM512 218.161c-144.14 0-251.416 35.084-302.031 98.816-29.989 37.79-39.522 84.992-27.55 136.582 3.048 13.117 16.165 21.333 29.257 18.213 13.117-3.023 21.26-16.14 18.213-29.257-8.606-37.083-2.462-69.096 18.261-95.183 40.57-51.078 136.728-80.384 263.826-80.384 132.437 0 223.476 26.088 263.29 75.508 21.504 26.624 27.624 59.465 18.749 100.425-2.853 13.166 5.51 26.136 18.676 28.989 13.166 2.779 26.136-5.51 28.989-18.676 12.020-55.491 2.462-103.083-28.428-141.385-50.103-62.147-151.454-93.647-301.251-93.647zM512 107.691c-144.14 0-251.416 35.084-302.031 98.816-29.989 37.79-39.522 84.992-27.55 136.582 3.048 13.117 16.165 21.358 29.257 18.213 13.117-3.023 21.26-16.14 18.213-29.257-8.606-37.083-2.462-69.096 18.261-95.183 40.57-51.078 136.728-80.384 263.826-80.384 132.437 0 223.476 26.088 263.29 75.508 21.504 26.624 27.624 59.465 18.749 100.425-2.853 13.166 5.51 26.136 18.676 28.989 13.166 2.804 26.136-5.51 28.989-18.676 12.020-55.491 2.462-103.083-28.428-141.385-50.103-62.147-151.454-93.647-301.251-93.647z" />
<glyph unicode="&#xe647;" d="M353.231 632.686c-9.606 0-18.7 5.681-22.552 15.116-5.12 12.459 0.829 26.697 13.288 31.817 45.251 18.603 96.646 28.014 152.722 28.014 50.517 0 97.304-7.558 139.093-22.479 12.702-4.535 19.285-18.456 14.75-31.134s-18.432-19.31-31.134-14.75c-36.498 13.019-77.775 19.627-122.709 19.627-49.688 0-94.842-8.192-134.193-24.357-3.023-1.243-6.168-1.853-9.265-1.853zM871.448 466.456c-13.214 0-24.064 10.581-24.381 23.845-0.293 13.434 10.338 24.576 23.747 24.917 7.363 0.244 70.754 4.023 72.216 63.025 0.341 13.263 11.191 23.796 24.381 23.796 0.195 0 0.414 0 0.585 0 13.483-0.341 24.113-11.532 23.796-24.966-2.121-85.406-79.287-109.69-119.784-110.592-0.195-0.024-0.39-0.024-0.561-0.024zM679.985 67.218c-38.107 0-69.169 30.671-69.754 68.584-68.389-14.629-150.357-14.921-219.16-2.121-1.707-36.962-32.305-66.487-69.681-66.487-38.473 0-69.778 31.256-69.778 69.681v48.957c-70.168 43.422-118.345 107.959-140.532 188.075h-16.408c-34.426 0-62.464 28.014-62.464 62.488v72.338c0 34.426 28.014 62.44 62.464 62.44h15.141c42.667 159.476 188.977 257.609 386.877 257.609 238.738 0 399.141-141.531 399.141-352.183 0-121.344-51.736-221.403-146.066-283.331v-56.369c0-38.424-31.305-69.681-69.778-69.681zM634.587 191.439c5.218 0 10.386-1.682 14.653-4.876 6.144-4.608 9.728-11.825 9.728-19.505v-30.135c0-11.557 9.435-20.919 20.992-20.919 11.605 0 21.016 9.387 21.016 20.919v69.827c0 8.558 4.51 16.506 11.825 20.894 86.577 52.005 134.242 140.434 134.242 248.954 0 181.492-140.8 303.421-350.379 303.421-180.809 0-312.296-90.746-343.479-236.91-1.755-11.727-11.849-20.724-24.064-20.724h-34.45c-7.558 0-13.702-6.12-13.702-13.678v-72.338c0-7.582 6.144-13.726 13.702-13.726h35.547c7.509 0 14.604-3.462 19.212-9.387 2.682-3.462 4.389-7.509 4.949-11.727 17.652-78.312 63.195-140.361 131.901-179.614 4.437-2.072 8.265-5.486 10.825-9.947 2.341-4.096 3.389-8.631 3.218-13.117v-61.976c0-11.557 9.435-20.919 21.016-20.919s20.992 9.387 20.992 20.919v27.063c0 13.458 10.898 24.405 24.381 24.405 2.536 0 4.949-0.39 7.241-1.097 37.254-9.362 78.555-14.117 122.709-14.117 47.372 0 91.502 5.803 131.121 17.31 2.267 0.683 4.559 1 6.802 1z" />
<glyph unicode="&#xe648;" d="M511.586 202.484c-66.219 0-128.463 25.771-175.299 72.631-96.622 96.622-96.622 253.903 0 350.574 46.86 46.811 109.105 72.631 175.275 72.631h0.024c66.219 0 128.463-25.819 175.25-72.631 46.836-46.811 72.631-109.105 72.631-175.275 0-66.243-25.819-128.488-72.631-175.275-46.787-46.86-109.032-72.655-175.25-72.655zM511.586 649.533c-53.199 0-103.205-20.724-140.824-58.344-77.629-77.678-77.629-203.995 0-281.624 37.62-37.62 87.65-58.344 140.824-58.344s103.156 20.724 140.776 58.344 58.368 87.625 58.368 140.8-20.748 103.18-58.368 140.8-87.601 58.368-140.776 58.368zM877.714 59.904c-6.242 0-12.483 2.389-17.237 7.144l-208.091 208.043c-9.533 9.533-9.533 24.942 0 34.475 9.484 9.533 24.942 9.533 34.475 0l208.091-208.043c9.533-9.533 9.533-24.942 0-34.475-4.754-4.754-10.996-7.144-17.237-7.144zM697.685 73.435c-6.242 0-12.483 2.389-17.237 7.144-9.533 9.533-9.533 24.942-0.024 34.475l166.449 166.522c9.533 9.484 24.966 9.484 34.499 0 9.533-9.533 9.533-24.942 0-34.475l-166.424-166.522c-4.754-4.779-11.020-7.144-17.262-7.144zM349.477 584.046c-6.242 0-12.483 2.389-17.237 7.144l-192.61 192.658c-9.533 9.533-9.533 24.942 0 34.426 9.533 9.582 24.942 9.582 34.475 0l192.61-192.61c9.533-9.533 9.533-24.942 0-34.475-4.754-4.754-10.996-7.144-17.237-7.144zM146.286 573.464c-13.483 0-24.381 10.947-24.381 24.381v213.87c0 13.483 10.898 24.381 24.381 24.381h213.797c13.458 0 24.381-10.898 24.381-24.381s-10.923-24.381-24.381-24.381h-189.416v-189.464c0-13.434-10.923-24.405-24.381-24.405z" />
<glyph unicode="&#xe649;" d="M753.103 21.333h-482.182c-56.101 0-101.742 43.569-101.742 97.134v337.359c0 53.565 45.641 97.158 101.742 97.158h482.158c56.101 0 101.717-43.593 101.717-97.158v-337.359c0.024-53.565-45.617-97.134-101.693-97.134zM217.941 345.186v0-226.718c0-26.673 23.771-48.372 52.98-48.372h482.158c29.184 0 52.955 21.723 52.955 48.372v337.359c0 26.697-23.771 48.396-52.955 48.396h-482.158c-29.208 0-52.98-21.723-52.98-48.396v-110.641zM698.563 504.247c-13.483 0-24.381 10.898-24.381 24.381v135.095c0 89.429-72.753 162.182-162.182 162.182s-162.158-72.753-162.158-162.182v-135.095c0-13.483-10.923-24.381-24.381-24.381s-24.381 10.898-24.381 24.381v135.095c0 116.297 94.622 210.944 210.92 210.944 116.322 0 210.944-94.647 210.944-210.944v-135.095c0-13.483-10.898-24.381-24.381-24.381zM357.376 287.159c0-13.465-10.916-24.381-24.381-24.381s-24.381 10.916-24.381 24.381c0 13.465 10.916 24.381 24.381 24.381s24.381-10.916 24.381-24.381zM476.721 287.159c0-13.465-10.916-24.381-24.381-24.381s-24.381 10.916-24.381 24.381c0 13.465 10.916 24.381 24.381 24.381s24.381-10.916 24.381-24.381zM596.090 287.159c0-13.465-10.916-24.381-24.381-24.381s-24.381 10.916-24.381 24.381c0 13.465 10.916 24.381 24.381 24.381s24.381-10.916 24.381-24.381zM715.435 287.159c0-13.465-10.916-24.381-24.381-24.381s-24.381 10.916-24.381 24.381c0 13.465 10.916 24.381 24.381 24.381s24.381-10.916 24.381-24.381z" />
<glyph unicode="&#xe64a;" d="M816.567 66.609h-609.109c-67.34 0-122.124 52.2-122.124 116.297v447.61c0 64.146 54.784 116.322 122.124 116.322h51.736c3.34 14.19 8.533 34.523 16.14 64.195 2.779 10.801 12.507 18.334 23.625 18.334h426.13c11.118 0 20.846-7.534 23.625-18.334l16.457-64.195h51.419c67.34 0 122.1-52.2 122.1-116.322v-447.61c-0.024-64.098-54.784-116.297-122.124-116.297zM207.458 698.1c-40.448 0-73.362-30.33-73.362-67.56v-447.61c0-37.23 32.914-67.535 73.362-67.535h609.109c40.448 0 73.338 30.281 73.338 67.535v447.586c0 37.23-32.89 67.56-73.338 67.56h-70.339c-11.142 0-20.846 7.534-23.625 18.334l-16.482 64.195h-388.242c-5.973-23.284-15.604-60.855-16.408-63.902-0.39-1.707-1-3.34-1.755-4.949-4.096-8.387-12.605-13.678-21.894-13.678h-70.363zM512 240.762c-107.52 0-195.048 87.528-195.048 195.048 0 107.569 87.528 195.048 195.048 195.048 107.569 0 195.048-87.479 195.048-195.048 0-107.52-87.479-195.048-195.048-195.048zM512 582.095c-80.677 0-146.286-65.609-146.286-146.286s65.609-146.286 146.286-146.286 146.286 65.609 146.286 146.286-65.609 146.286-146.286 146.286zM632.71 556.471c66.609-66.609 66.609-174.714 0-241.323-66.658-66.658-174.714-66.658-241.371 0zM512.024 240.859c-49.957 0-99.889 18.993-137.923 57.051-9.533 9.533-9.533 24.942 0 34.475s24.942 9.533 34.475 0c57.051-57.051 149.845-57.051 206.897 0 57.027 57.051 57.027 149.821 0 206.848-9.533 9.533-9.533 24.942 0 34.475s24.942 9.533 34.475 0c76.044-76.044 76.044-199.753 0-275.822-38.034-38.034-87.966-57.027-137.923-57.027z" />
<glyph unicode="&#xe64b;" d="M763.977 21.333h-504.003c-58.002 0-105.179 45.105-105.179 100.45v386.292c0 55.394 47.202 100.45 105.179 100.45h504.003c58.027 0 105.228-45.056 105.228-100.45v-149.333c0 0 0 0 0-0.024v0-236.934c0-55.345-47.202-100.45-105.228-100.45zM259.974 559.762c-31.086 0-56.418-23.162-56.418-51.688v-386.292c0-28.477 25.332-51.688 56.418-51.688h504.003c31.11 0 56.466 23.211 56.466 51.688v236.934c0 0.024 0 0.024 0 0.024v149.333c0 28.526-25.356 51.688-56.466 51.688h-504.003zM666.307 559.762c-13.483 0-24.381 10.923-24.381 24.381v111.762c0 71.68-58.295 129.999-129.95 129.999s-129.95-58.319-129.95-129.999v-111.762c0-13.458-10.898-24.381-24.381-24.381s-24.381 10.923-24.381 24.381v111.762c0 98.597 80.189 178.761 178.712 178.761 98.572 0 178.712-80.165 178.712-178.761v-111.762c0-13.458-10.898-24.381-24.381-24.381z" />
<glyph unicode="&#xe64c;" d="M725.090 21.333h-426.179c-64.146 0-116.322 54.76-116.322 122.124v609.134c0 67.34 52.2 122.075 116.322 122.075h286.379c0 0 0 0 0.049 0h139.752c64.146 0 116.322-54.735 116.322-122.075v-609.134c0.024-67.365-52.175-122.124-116.322-122.124zM298.91 825.905c-37.278 0-67.56-32.89-67.56-73.314v-609.134c0-40.424 30.281-73.362 67.56-73.362h426.179c37.23 0 67.56 32.939 67.56 73.362v609.134c0 40.424-30.33 73.314-67.56 73.314h-139.752c-0.049 0-0.049 0-0.049 0h-286.379zM817.054 679.741h-610.109c-13.483 0-24.381 10.898-24.381 24.381 0 13.458 10.898 24.381 24.381 24.381h610.085c13.434 0 24.381-10.923 24.381-24.381 0.024-13.483-10.923-24.381-24.357-24.381zM817.054 210.408h-610.109c-13.483 0-24.381 10.898-24.381 24.381 0 13.458 10.898 24.381 24.381 24.381h610.085c13.434 0 24.381-10.923 24.381-24.381 0.024-13.483-10.923-24.381-24.357-24.381zM569.905 125.074h-115.81c-13.483 0-24.381 10.898-24.381 24.381 0 13.458 10.898 24.381 24.381 24.381h115.81c13.434 0 24.381-10.923 24.381-24.381 0-13.483-10.947-24.381-24.381-24.381z" />
<glyph unicode="&#xe64d;" d="M534.057-12.8c-42.967 0-85.156 3.973-125.44 11.817-40.755 7.967-79.36 20.152-114.77 36.27-35.84 16.2-69.018 37.171-98.591 62.28-29.737 25.231-55.624 55.439-76.902 89.723-21.217 34.079-37.949 73.38-49.664 116.756-11.592 43.172-17.49 91.464-17.49 143.565 0 69.325 11.346 132.997 33.71 189.297 22.528 56.709 55.050 105.861 96.727 146.145 41.636 40.243 92.283 71.619 150.487 93.286 57.692 21.565 122.962 32.461 193.946 32.461 38.605 0 76.902-3.748 113.889-11.182 37.028-7.434 72.479-19.067 105.431-34.447 32.973-15.401 63.734-35.041 91.484-58.348 27.996-23.532 52.367-51.589 72.417-83.333 19.968-31.519 35.717-67.686 46.858-107.459 11.039-39.629 16.65-83.743 16.65-131.133 0-40.878-5.571-80.159-16.589-116.675-11.223-37.274-28.18-70.328-50.401-98.12-33.935-42.496-126.484-119.235-195.645-85.402-24.228 11.756-39.322 35.942-47.514 63.324-9.769-11.592-20.009-21.627-29.614-28.877-47.78-36.311-105.349-41.206-155.341-41.206-32.87 0-63.283 5.714-90.358 17.039-27.279 11.407-50.954 27.73-70.369 48.435-19.292 20.603-34.406 45.588-44.913 74.24-10.363 28.303-15.606 59.679-15.606 93.286 0 36.884 5.53 71.352 16.445 102.4 11.244 32.113 29.368 60.232 53.76 83.517 24.125 23.020 55.439 41.083 93.041 53.76 36.884 12.268 81.347 18.473 132.219 18.473 6.41 0 16.015-0.471 28.856-1.556 11.96-0.922 24.801-2.15 38.359-3.604 13.681-1.454 26.788-3.092 39.322-4.956 13.476-2.048 23.798-4.116 31.601-6.431 10.609-3.113 17.859-12.861 17.838-23.921l-0.471-291.779c0-1.024-0.041-2.048-0.143-3.092-0.102-0.942-0.266-1.925-0.451-2.847-6.595-32.87 1.024-89.682 25.17-101.437 34.161-16.65 102.687 31.396 134.922 71.721 18.248 22.815 32.236 50.196 41.615 81.408 9.605 31.887 14.459 66.294 14.459 102.318 0 42.865-4.977 82.452-14.828 117.719-9.81 35.103-23.613 66.806-40.98 94.249-17.347 27.443-38.318 51.63-62.382 71.844-24.371 20.5-51.487 37.765-80.507 51.364-29.368 13.701-61.051 24.044-94.188 30.72-33.731 6.799-68.731 10.24-104.059 10.24-65.024 0-124.416-9.871-176.558-29.368-51.753-19.231-96.604-46.981-133.263-82.412-36.536-35.328-65.167-78.623-85.053-128.696-20.009-50.442-30.167-107.93-30.167-170.926 0-47.739 5.325-91.689 15.79-130.601 10.424-38.646 25.17-73.421 43.848-103.404 18.555-29.921 41.042-56.177 66.847-78.049 26.030-22.118 55.276-40.591 86.938-54.927 31.908-14.52 66.785-25.518 103.69-32.768 37.13-7.209 76.145-10.854 115.917-10.854 6.41 0 13.64 0.512 21.791 1.475 8.356 1.065 16.916 2.478 25.498 4.28 8.663 1.864 17.019 3.85 24.945 5.98 7.107 1.966 13.21 3.871 18.166 5.816 12.8 5.018 27.259-1.188 32.317-13.947 5.079-12.759-1.167-27.259-13.947-32.358-6.328-2.478-14.131-4.997-23.47-7.578-8.888-2.376-18.084-4.628-27.75-6.676-10.035-2.068-19.927-3.748-29.839-4.977-10.445-1.208-19.599-1.864-27.689-1.864zM551.916 617.308c-45.507 0-84.685-5.366-116.408-15.933-30.577-10.301-55.665-24.617-74.506-42.537-18.903-18.043-32.358-38.953-41.124-63.959-9.032-25.764-13.599-54.641-13.599-85.914 0-27.73 4.198-53.35 12.554-76.206 8.151-22.303 19.763-41.595 34.488-57.283 14.561-15.565 32.481-27.832 53.207-36.536 20.951-8.724 44.913-13.189 71.168-13.189 43.807 0 89.272 3.789 125.194 31.048 23.040 17.51 48.517 55.112 54.682 80.364l0.451 269.435c-2.109 0.389-4.424 0.737-6.943 1.126-11.878 1.761-24.269 3.297-37.212 4.71-13.066 1.352-25.436 2.56-37.11 3.461-11.121 0.922-19.354 1.413-24.842 1.413z" />
<glyph unicode="&#xe64e;" d="M432.104 552.375c-55.003 0-99.718 44.69-99.718 99.669s44.715 99.718 99.718 99.718c54.93 0 99.645-44.739 99.645-99.718s-44.715-99.669-99.645-99.669zM432.104 703c-28.087 0-50.956-22.869-50.956-50.956 0-28.062 22.869-50.907 50.956-50.907 28.014 0 50.883 22.845 50.883 50.907 0 28.087-22.869 50.956-50.883 50.956zM115.858 356.45c-6.242 0-12.483 2.389-17.262 7.168-9.509 9.533-9.509 24.917 0 34.475l158.135 158.086c4.584 4.584 10.776 7.168 17.262 7.168v0c6.461 0 12.678-2.584 17.237-7.168l158.062-158.086c9.557-9.557 9.557-24.942 0-34.475-9.509-9.557-24.942-9.557-34.475 0l-140.824 140.849-140.898-140.849c-4.754-4.779-10.996-7.168-17.237-7.168zM153.527 66.536c-6.242 0-12.483 2.389-17.262 7.119-9.509 9.557-9.509 24.942 0 34.475l512 511.976c4.584 4.559 10.752 7.119 17.262 7.119v0c6.485 0 12.654-2.56 17.213-7.119l248.027-248.027c9.509-9.533 9.509-24.942 0-34.475-9.533-9.509-24.942-9.509-34.475 0l-230.766 230.766-494.787-494.714c-4.73-4.73-10.971-7.119-17.213-7.119zM816.542 45.3h-609.109c-67.34 0-122.1 52.175-122.1 116.322v572.806c0 64.122 54.76 116.273 122.1 116.273h609.109c67.34 0 122.124-52.151 122.124-116.273v-286.427c0 0 0-0.024 0-0.049v0-286.33c0-64.146-54.784-116.322-122.124-116.322zM207.433 801.938c-40.448 0-73.338-30.306-73.338-67.511v-572.806c0-37.23 32.89-67.56 73.338-67.56h609.109c40.424 0 73.362 30.306 73.362 67.56v286.33c0 0.024 0 0.049 0 0.049v286.427c0 37.205-32.939 67.511-73.362 67.511h-609.109z" />
<glyph unicode="&#xe64f;" d="M764.075 23.064c-95.866 0-173.861 77.995-173.861 173.861s77.995 173.861 173.861 173.861 173.861-77.995 173.861-173.861-77.995-173.861-173.861-173.861zM764.075 322.024c-68.974 0-125.099-56.101-125.099-125.099 0-68.949 56.125-125.099 125.099-125.099 68.998 0 125.099 56.149 125.099 125.099 0 68.998-56.101 125.099-125.099 125.099zM856.625 80.457c-6.242 0-12.459 2.438-17.213 7.192l-182.077 182.053c-9.509 9.533-9.509 24.942 0 34.475 9.533 9.533 24.966 9.533 34.475 0l182.077-182.053c9.509-9.582 9.509-24.942 0-34.475-4.803-4.779-11.020-7.192-17.262-7.192zM432.128 574.537c-54.955 0-99.718 44.763-99.718 99.767 0 54.955 44.763 99.718 99.718 99.718 55.003 0 99.694-44.763 99.694-99.718 0-55.003-44.715-99.767-99.694-99.767zM432.128 725.26c-28.087 0-50.956-22.869-50.956-50.956 0-28.136 22.869-51.005 50.956-51.005 28.062 0 50.932 22.869 50.932 51.005 0 28.111-22.869 50.956-50.932 50.956zM816.591 872.936h-609.134c-67.34 0-122.124-52.2-122.124-116.346v-572.806c0-64.049 54.784-116.248 122.124-116.248h326.022c13.507 0 24.381 10.898 24.381 24.381 0 13.434-10.874 24.381-24.381 24.381h-326.022c-40.424 0-73.362 30.281-73.362 67.486v572.806c0 37.23 32.939 67.56 73.362 67.56h609.134c40.424 0 73.314-30.33 73.314-67.56v-375.296c0-13.531 10.898-24.381 24.381-24.381 13.507 0 24.381 10.85 24.381 24.381v375.296c0 64.146-54.76 116.346-122.075 116.346zM115.907 378.685c-6.217 0-12.459 2.341-17.213 7.095-9.533 9.533-9.533 24.942 0 34.475l158.086 158.184c4.584 4.584 10.752 7.095 17.213 7.095v0c6.485 0 12.702-2.536 17.262-7.095l158.086-158.184c9.533-9.533 9.533-24.942 0-34.475-9.557-9.484-24.942-9.484-34.499 0l-140.849 140.946-140.849-140.946c-4.754-4.754-10.996-7.095-17.237-7.095zM153.6 88.747c-6.242 0-12.483 2.389-17.237 7.192-9.533 9.484-9.533 24.942 0 34.426l512 511.951c4.559 4.584 10.728 7.192 17.237 7.192v0c6.485 0 12.678-2.609 17.213-7.192l247.954-248.003c9.533-9.533 9.533-24.893 0-34.475-9.509-9.533-24.942-9.533-34.45 0l-230.717 230.814-494.787-494.714c-4.73-4.827-10.971-7.192-17.213-7.192z" />
<glyph unicode="&#xe650;" d="M170.667 490.667c-35.413 0-64-28.587-64-64s28.587-64 64-64 64 28.587 64 64-28.587 64-64 64zM170.667 746.667c-35.413 0-64-28.587-64-64s28.587-64 64-64 64 28.587 64 64-28.587 64-64 64zM170.667 227.627c-31.36 0-56.96-25.387-56.96-56.96s25.6-56.96 56.96-56.96 56.96 25.387 56.96 56.96-25.6 56.96-56.96 56.96zM298.667 128h597.333v85.333h-597.333v-85.333zM298.667 384h597.333v85.333h-597.333v-85.333zM298.667 725.334v-85.333h597.333v85.333h-597.333z" />
</font>
</defs>
</svg>
